<svg xmlns="http://www.w3.org/2000/svg" viewBox="0 0 1125.76 1314.3"><defs><style>.cls-1{isolation:isolate;}.cls-10,.cls-2,.cls-9{mix-blend-mode:multiply;}.cls-3{fill:#f80;}.cls-4{fill:#ffd200;}.cls-5{fill:#fdd106;}.cls-6{fill:#f5871f;}.cls-7{fill:#603813;}.cls-8{fill:#90633a;}.cls-9{opacity:0.42;}.cls-10{opacity:0.36;}.cls-11{fill:#e7dec6;}</style></defs><title>cowboy-coder</title><g class="cls-1"><g id="Layer_20" data-name="Layer 20"><g id="cowboy_coder" data-name="cowboy coder"><g id="background"><g class="cls-2"><path d="M1099.69,286.95c18.59-20.37-8.41-20.08-8.41-20.08l-87.36-11.11-21-6.73h0q5.39-4.39,10.71-9.1c18.68-16.57,31.49-33,39.74-48.78,36.26-69-12.64-127.18-46.83-129.34C951.8,59.62,919.68,66,877.46,108.07a174.81,174.81,0,0,0-32.34-44.8c-7.17-7.59-14.58-13.85-22.13-18.06-.74-.41-1.43-.76-2.15-1.15a89.54,89.54,0,0,0-12-6.06l-.05,0c-37.53-17.35-60.12-12.22-82-4.61L674.25,46.15c-2.64,0-5.33,0-8.15-.18h0c-3.82-1.46-7.8-2.86-11.89-4.23l-3.44-1.13c-1.77-.57-3.55-1.14-5.38-1.69s-3.89-1.15-5.87-1.71q-3.36-1-6.84-1.86c-1.82-.48-3.66-.95-5.53-1.4-1.59-.39-3.19-.78-4.82-1.15-3.16-.73-6.37-1.43-9.66-2.1-1.21-.25-2.47-.47-3.7-.71q-3.94-.76-8-1.45c-1.39-.24-2.78-.47-4.2-.7-3.76-.6-7.58-1.17-11.49-1.69l-2.43-.29q-5.18-.65-10.54-1.19l-3.82-.37c-4.33-.4-8.71-.76-13.22-1.05l-1.14-.06c-4.26-.26-8.61-.46-13-.61l-3.77-.12c-4.83-.14-9.73-.23-14.75-.23-59.73,0-88.43,41.72-102.22,84q-1.11,3.4-2.1,6.8V113c-7.91,12.86-8.83,26.78-7.77,37.48-.63,4.64-1.13,9.08-1.51,13.2q-3.37-3-6.7-5.76l-1.41-1.18q-2.65-2.21-5.29-4.32l-1.92-1.52c-1.66-1.3-3.33-2.57-5-3.8-.63-.47-1.25-.95-1.88-1.4-2.24-1.63-4.47-3.21-6.71-4.7-18.12-12.08-33.17-16.62-45.91-15.72-33.63,1.68-52.89,38.3-63.6,76.41h0c-4.33,11.36-8,26.27-11.06,43.26a656.19,656.19,0,0,0-13.75,81.41c-7,4-10.34,9.62-7.43,18.49a65.16,65.16,0,0,0,5.36,10.32c-1.76,42.46,2.81,72.31,5.66,96.68.2,2.42.41,4.75.64,7,.35,7.53.81,14.37,1.44,20,4,35.56,42.2,57.46,42.22,57.47-2.85,16.86-5.17,33.68-7.06,49.76-.26,2.14-.41,3.46-.46,3.93-.14,1.26-.28,2.52-.42,3.77-2.07,3.09-4.06,6.11-5.91,9-16.36,25.85-13.47,47.43-7.92,60.69,2,4.83,4.27,10,6.7,15.33-.88,5.49-1.86,10.78-2.94,15.67-6.9,31.13,8.19,37.37,15,38.61l3.14,24.78c-3.92-.3-8.29.49-8.65,5.41-.66,9-2.64,32.29-2.64,32.29a10.25,10.25,0,0,0,0,1.32c-.1,1.73-.06,11,11.9,13.39.63.13,1.81.39,3.41.76l7.09,45.78c.12,1.18.2,2.36.32,3.53,2.5,24.5,5.18,46.83,8.08,67.36-24.65-4.17-62-17.38-90.62-57.71-16.58-24.07-30.31-57.73-37.15-104.75-3.52-26.56-4.61-57.35-2.43-93.16,4.19-31.42,14.16-49.11,23.41-64.9,4.37-7.23,8.59-14.35,11.93-22.18,6.76-1.93,8.25-6.15,8.25-6.15s2.63-8.55,2.63-15.12a4.22,4.22,0,0,0-1.08-3c0-.31,0-.62,0-.92,0,.17-.21.34-.43.5a5.11,5.11,0,0,0-2.7-1c.53-3.45,1.07-7,1.57-10.53a126.2,126.2,0,0,0,2.14-21.14c1.45-29.52-5.54-57.76-45.12-68.64l-.36-.11-.56-.16,0,0c-1.82-.51-3.67-1-5.63-1.39-38.71-8-72,25.22-90,84.68-1.23-.64-1.9-1-1.9-1s-2.66-3-4.14,2c-1.16,3.87-3.65,9.83-4.7,12.62a3.37,3.37,0,0,0,2.31,4.83c1.06.63,2.1,1.21,3.16,1.81-10.47,46.9-12.39,106.6-1.92,173.6,19.69,126,80.93,253.54,221.5,267.37l26,3.47c.53,2.31,1.06,4.62,1.61,6.86-1.47-.85-3-1.71-4.57-2.61l-.15-.08a24,24,0,0,0-3.62-1.71c-18.71-7.46-15.24,20.17-12.1,35.28v0s.45,2.4,1.5,6.52c.14.54.25,1,.35,1.37l.12.44.23.84c-.13,21.1,13.73,45,30.19,65.91a175.4,175.4,0,0,0,37.34,40.24c5.77,5.42,10.43,9.5,13.21,11.88l-25.85,8.44h0L367,1175l3-5-1.74,0,.81-3.17-11.9,1.8-2.83-10.46-1.72,1.43-.84-2.09-6.65,7.73-10.41-6.09-.41,3.1-1.77-.76V1174l-12.18,2.84,8.43,8.89-2.13,2.92-.18,0-5.74,7.85,13.59,1.6-.53,13.07.2-.11v.11l11-5.75,8.28,8.59.06-.14.14.14,4.18-10.64,12.34.32h.2l-4.14-10.65,8.36-3.9-2.14-1.53.4-.25,15.49,1c-.44,3.95-.76,8.95-.86,15.29a76.7,76.7,0,0,0,3,23.75c1.23,7.31,3.57,13.85,7.6,18.47,2.74,3.13,7.57,4.17,11,4.5h0a30.07,30.07,0,0,0,4.13.12A148.86,148.86,0,0,1,423,1238c2.25-2.5,8.58-7.26,19.79,3.3,3.78,3.56,14.7,11,31.12,19h0l.12.06a285.31,285.31,0,0,0,88,25.81c22.74,3.54,47,4.47,68.93-.41,11.14-1.83,18.9-4.71,24.05-8.33,35.7-17.89-35.16-71-35.16-71h0l-2-1.53a97.58,97.58,0,0,0,10.76-9c6,2.28,13.76,4.91,23.27,7.47,16.36,6.24,44.63,13,91.59,14.27a461.33,461.33,0,0,0,48.32-4.17q0,1.16-.05,2.34h0a33,33,0,0,0,1.23,17c1.38,7.58,4.06,14.35,8.91,18.79a11.91,11.91,0,0,0,5.44,2.62h0a6.61,6.61,0,0,0,7.43.46c1.41-.1,2.32-.26,2.32-.26s8.64-11.59,11.23-17.37c3.32-5.53,12.16-2.5,19.36,1.27l.31.22a94.11,94.11,0,0,0,10.1,6.26h0c26.32,14.55,94,42.68,171,25.89a112,112,0,0,0,16.29-4.73l1.18-.46,1.19-.5a50.5,50.5,0,0,0,6.51-3.26l.6-.36c.52-.33,1-.66,1.53-1,.77-.53,1.49-1.06,2.16-1.61h0c4.84-4,7.05-8.34,7.37-12.92h0a18.44,18.44,0,0,0-.37-5.05c-1.24-8.51-5.41-11.74-5.45-11.77-8.44-12.26-24.13-24-34.89-31.13a4.77,4.77,0,0,0-3.36-2.19c-1.61-1-3-1.92-4.23-2.65-.87-1.47-.77-3.35-.05-5.41a84,84,0,0,0,14.17-18.22h0c10.37-17.43,21.47-47,21.86-94.32.36-43.83-11-45.49-17.08-43.29h.07l-.18-.66a172,172,0,0,0-9-33.73l-.1-.36,0,.06c-1.78-4.62-3.64-8.85-5.52-12.66.07-1.06.16-2.1.22-3.17a293.17,293.17,0,0,0-14.17-128.86l5.91-6.94,3.1-1.28c1.87-.77,3-3.18,3-5.92l1.28-1.51a3.77,3.77,0,0,1-1,.61l-.32.13a10.38,10.38,0,0,0-.34-3l-9.21-34.35,4.21-3.64c25.62-9.79,58.39-84.94,79.35-125.44,6.31-12.2,8.07-33.29-7.56-58-27.12-42.84-80-105.09-127.34-127.28.59-14.78,1.56-24.74-1.18-28.33l2-4.29a74.46,74.46,0,0,0,14.45-7.65c17-8.12,32.76-23.25,39.65-50.94,6-24,2.77-40-3.24-50.66,8.15-.5,17.41-4.42,26-9.28C1068.6,321.56,1086,302,1099.69,286.95ZM980.4,251l-2,1.53h0l.8-.63ZM409,163.64Z"/></g><path d="M597.82,1301a245.24,245.24,0,0,1-37.63-3.1A295.91,295.91,0,0,1,468.83,1271l-.18-.09c-17.81-8.63-29.45-16.69-34-21a19.12,19.12,0,0,0-3.79-2.91c-4.22,4.87-8,10.23-8,10.29a11.89,11.89,0,0,1-9,5.06,39.84,39.84,0,0,1-5.95-.15c-8.15-.77-14.67-3.71-18.87-8.5-5-5.76-8.48-13.68-10.25-23.56a82.26,82.26,0,0,1-2.93-16,11.6,11.6,0,0,1-5.82,1.4l-4.3-.11-1.14,2.9a11.87,11.87,0,0,1-14,7.16,11.68,11.68,0,0,1-5.81-3.27l-2.11-2.18-3.07,1.61a11.9,11.9,0,0,1-11.58-.31l-.32-.19A11.88,11.88,0,0,1,322,1210.7l.09-2.09-2.67-.31a11.87,11.87,0,0,1-8.2-18.8l2.1-2.87-1.51-1.59a11.88,11.88,0,0,1,5.92-19.73l3-.7v-3.15a14,14,0,0,1,20-12.58l1.87,1.1.19-.23a11.89,11.89,0,0,1,4.24-3.13,197.84,197.84,0,0,1-15.64-20.07c-21.09-26.88-32-50.85-32.46-71.3l-.36-1.38c-1-3.88-1.49-6.39-1.62-7.05-2.84-13.68-3.5-24.33-1.92-32.36-162.64-19.27-212-181.26-226.88-276.79-9.61-61.54-9.47-120,.34-169.82a14.76,14.76,0,0,1-2.62-3.51,15.46,15.46,0,0,1-.66-12.92c.31-.83.75-1.93,1.24-3.18,1.06-2.69,2.52-6.38,3.2-8.67,2-6.64,6.06-9.37,9.13-10.49,21-61.12,58.25-92.13,100.67-83.35,1.94.4,3.8.86,5.61,1.36l.62.14.85.25.39.11c56.62,15.56,54.47,64.15,53.67,80.43a138.39,138.39,0,0,1-2.29,22.67c-.11.8-.22,1.59-.34,2.39a11.79,11.79,0,0,1,1.73,3.92,16.67,16.67,0,0,1,1.36,6.71c0,8.13-2.83,17.57-3.16,18.62,0,.15-.09.29-.14.44-1.33,3.77-4.73,8.31-10.58,11.4a218.51,218.51,0,0,1-10.65,19.14c-8.26,14.12-17.73,30.28-21.74,59.91-2,33-1.19,63.47,2.37,90.45C203.17,804.43,215,838,232.4,863.22c20.34,28.68,45.49,42.45,66.77,49-2.06-16-4-32.94-5.82-50.66l-.3-3.29-5.84-37.68c-11.89-4.33-16.94-14.56-16.65-23.79a19.54,19.54,0,0,1,.1-2.47c0-.11,2-23,2.61-31.91a17,17,0,0,1,7.43-13.2l-.93-7.36a30.43,30.43,0,0,1-11.7-10.38c-6.34-9.57-7.69-22.89-4-39.56.77-3.49,1.52-7.34,2.23-11.5C264.4,676.09,262.6,672,261,668c-5.43-13-11.5-39.5,8.84-71.63,1.42-2.25,2.92-4.55,4.47-6.88l.57-4.91c1.75-14.89,3.73-29.2,5.88-42.65-12.69-9-37.55-30.41-41.05-61.86-.61-5.45-1.11-12.33-1.49-20.43-.22-2.13-.42-4.36-.61-6.67q-.49-4.15-1-8.53c-2.71-22.17-6.06-49.6-4.81-86.26a71.71,71.71,0,0,1-4.39-9c-.09-.22-.17-.45-.25-.68-3.74-11.39-1-21.59,7.47-28.79a684,684,0,0,1,13.35-77.19c3.29-18.24,7.13-33.24,11.4-44.6,19.17-67.75,51-83.39,74.3-84.55,16.12-1.14,33.52,4.65,53.09,17.7,2.37,1.58,4.74,3.25,7.11,5l2,1.46,2.61,2a68.69,68.69,0,0,1,9-31.38q.83-2.77,1.74-5.55C428.75,42.23,468,10.35,522.6,10.35c5.13,0,10.14.09,15.08.23l3.84.12c4.53.16,9,.36,13.34.63l1.15.06c4.65.3,9.14.67,13.58,1.08l3.91.38q5.51.56,10.83,1.23l2.49.3c4,.53,8,1.12,11.82,1.74l4.31.72c2.81.48,5.55,1,8.26,1.5l3.79.72c3.41.69,6.72,1.42,10,2.17,1.45.33,2.86.68,4.27,1l.69.17c2,.49,3.86,1,5.73,1.46,2.41.63,4.77,1.27,7.09,1.93,2,.58,4.08,1.16,6.07,1.77s3.73,1.16,5.57,1.75L658,30.5c3.77,1.26,7.24,2.48,10.54,3.71,1.33.06,2.7.09,4.26.08L723.51,22c22.89-7.92,48.76-13.88,90,5.11a101.11,101.11,0,0,1,13.13,6.64l2.07,1.11c8.29,4.62,16.46,11.25,25,20.29A183.28,183.28,0,0,1,880.4,89c39.47-35.14,71.6-41.25,106.86-39,21.34,1.35,44,18,57.76,42.49,17.61,31.32,17.19,69.31-1.16,104.22-8.53,16.32-21,32.26-37.25,47.46L1092,255c5.45.07,19.45,1.41,24.51,12.72,3.66,8.18.94,17.34-8.1,27.24l-1,1.1c-13.69,15-32.4,35.53-65.64,49.21a101.91,101.91,0,0,1-15.09,7c3.37,13,2.93,28.06-1.31,45.09-6.82,27.38-22,47-45.25,58.4a87.42,87.42,0,0,1-9,5.21c.55,4.73.34,10.45,0,17.61,46,24.86,96.46,82.72,125.17,128.07,15.22,24.05,18.24,50.14,8.07,69.78-3.63,7-7.61,15.07-11.86,23.66-25.37,51.3-46.82,92-68.63,104.91l6.52,24.32a11.88,11.88,0,0,1,.73,13.76,16.85,16.85,0,0,1-9.81,12l-.11,0a307.25,307.25,0,0,1,12.58,126.95c1.43,3.08,2.82,6.33,4.14,9.69a11.87,11.87,0,0,1,.73,1.87,180.39,180.39,0,0,1,7.8,26.85,19.89,19.89,0,0,1,4.61,2.43c10.16,7.19,14.59,23.29,14.35,52.22-.41,50.93-13,82.65-23.53,100.3a108.09,108.09,0,0,1-9.08,13.05l.52.53c11.71,7.92,26.74,19.57,35.81,32.24,2.61,2.7,6.63,8.19,8.06,17.43a30.26,30.26,0,0,1,.53,7.94c-.4,5.67-2.75,14-11.7,21.29l-.19.15c-.85.68-1.77,1.36-2.73,2-.63.44-1.31.87-2,1.31l-.81.49a62.89,62.89,0,0,1-8,4l-2.75,1.11a124.58,124.58,0,0,1-18,5.22c-86.56,18.84-158.92-15.85-179.2-27l-.12-.06a111.64,111.64,0,0,1-10.89-6.72,35,35,0,0,0-4.68-2c-3.62,6.21-8.91,13.39-10.15,15.06a12.11,12.11,0,0,1-7.55,4.61s-.47.09-1.28.18a18.17,18.17,0,0,1-15.18-1.08,22.73,22.73,0,0,1-8.74-4.89c-6.19-5.66-10.37-14-12.44-24.69a50.78,50.78,0,0,1-1.86-8.68c-11.7,1.28-23.65,2.13-35.67,2.55-.25,0-.49,0-.73,0-39.67-1.06-71.61-6-94.94-14.83l-.4-.11c14.77,14.15,30.56,33.61,29,51-.59,6.64-3.82,15.78-15.71,22.06-6.84,4.59-16,7.79-27.9,9.78A164.84,164.84,0,0,1,597.82,1301Zm-118.57-51.29.05,0a272.47,272.47,0,0,0,84.17,24.65c25.07,3.9,46.79,3.81,64.9-.22l.65-.12c10.93-1.8,16.45-4.43,19.15-6.33a11.6,11.6,0,0,1,1.5-.9c3.33-1.67,3.44-2.89,3.48-3.34.85-9.52-20.63-32.7-40.45-47.55l-2-1.54a11.87,11.87,0,0,1,.2-19.13,86.62,86.62,0,0,0,9.45-7.89,11.89,11.89,0,0,1,12.43-2.56c7.17,2.7,14.42,5,22.17,7.11a11.71,11.71,0,0,1,1.15.37c14.31,5.46,41.06,12.22,87.31,13.48a452.3,452.3,0,0,0,46.71-4.05,11.88,11.88,0,0,1,13.52,12.11l0,2.16a11.87,11.87,0,0,1-.28,2.4,21.26,21.26,0,0,0,.94,10.79,11.29,11.29,0,0,1,.37,1.48c1,5.53,2.71,9.62,4.94,11.87l.39.1c.27.07.55.14.81.22a88.67,88.67,0,0,0,6.69-10.65,12.1,12.1,0,0,1,.65-1.26c3-4.92,12.28-15.07,35.06-3.13a12.45,12.45,0,0,1,1.55,1l.36.26a84.45,84.45,0,0,0,8.71,5.36l.14.08c13.35,7.36,82.27,42.13,162.63,24.6a100.53,100.53,0,0,0,14.56-4.21l1.78-.71a40.47,40.47,0,0,0,5.25-2.6l.46-.28c.32-.2.68-.42,1-.66.51-.36,1-.69,1.41-1l.14-.11c2.78-2.32,2.89-3.87,2.93-4.46a6.67,6.67,0,0,0-.15-1.79c-.05-.24-.09-.48-.13-.71a10.15,10.15,0,0,0-1.59-4.62,11.88,11.88,0,0,1-1.89-2.14c-5.65-8.21-16.9-18.14-31.69-28a11.84,11.84,0,0,1-1.51-1.19,12,12,0,0,1-1.66-.89c-1.55-1-2.91-1.84-4-2.54a11.82,11.82,0,0,1-4-4.09c-1.83-3.1-3.49-8.28-1-15.33a11.82,11.82,0,0,1,3.08-4.75,71.93,71.93,0,0,0,12.1-15.65c9-15.13,19.82-42.74,20.19-88.35.17-20.24-2.38-28.46-3.74-31.41a11.87,11.87,0,0,1-13.23-10.22q0-.16-.06-.32a160.65,160.65,0,0,0-8.37-31.41l0-.07-.09-.22c-1.6-4.16-3.31-8.08-5.09-11.68a11.92,11.92,0,0,1-1.2-6.08l.21-3c0-.22,0-.43.05-.65a283,283,0,0,0-13.59-123.64,11.87,11.87,0,0,1,2.18-11.58l5.91-6.94a11.79,11.79,0,0,1,2.78-2.39l-8.63-32.21a11.87,11.87,0,0,1,3.7-12.05l4.21-3.64a11.94,11.94,0,0,1,3.53-2.11c16.8-6.42,44.46-62.35,61-95.76,4.31-8.72,8.36-16.91,12.06-24,2.34-4.52,8.75-21.21-7.05-46.16C1047,573,995.55,515.94,954,496.47a11.88,11.88,0,0,1-6.83-11.23l.28-6.29c.27-5.83.6-13,.16-15.57a11.87,11.87,0,0,1-.55-10.92l2-4.29a11.88,11.88,0,0,1,6.44-6.12,62.94,62.94,0,0,0,12.15-6.43,11.64,11.64,0,0,1,1.55-.89c17-8.11,28.15-22.61,33.25-43.1,4.39-17.64,3.7-31.76-2.06-42a11.88,11.88,0,0,1,9.61-17.69c3.67-.23,10.27-1.76,20.86-7.76a11.76,11.76,0,0,1,1.39-.67c28.7-11.66,44.8-29.31,57.74-43.5l1-1.11h0l.19-.2a12.37,12.37,0,0,1-1.33-.09l-87.36-11.12a11.76,11.76,0,0,1-2.12-.47l-15.06-4.82a11.87,11.87,0,0,1-14.12-19.08l0,0,2-1.53a12.63,12.63,0,0,1,1.32-.9c.31-.31.64-.61,1-.9,3.48-2.83,7-5.79,10.34-8.79,16.54-14.67,29-29.94,37.1-45.39,19.9-37.88,9.47-67.36,1.49-81.56-11.21-19.94-27.84-29.75-38.55-30.42-33-2.07-61.3,4.36-99.93,42.83a11.88,11.88,0,0,1-19-3.1,163.79,163.79,0,0,0-30.1-41.7c-7-7.41-13.5-12.74-19.54-16.1l-2.06-1.1-.4-.23A79,79,0,0,0,804.5,49l-.3-.12c-34.14-15.77-53.43-11.29-73.42-4.33a10.62,10.62,0,0,1-1.1.32L677.05,57.69a12,12,0,0,1-2.63.34c-3.15,0-5.88,0-8.53-.17a11.83,11.83,0,0,1-4-.77c-3.68-1.4-7.49-2.76-11.43-4.07l-3.33-1.1c-1.7-.55-3.41-1.09-5.17-1.63s-3.76-1.11-5.66-1.65q-3.26-.93-6.61-1.8-2.64-.69-5.35-1.36l-.65-.16c-1.33-.32-2.65-.64-4-1-3.05-.7-6.16-1.39-9.35-2l-3.58-.68c-2.56-.49-5.14-1-7.77-1.41l-4.08-.68c-3.64-.58-7.35-1.14-11.16-1.64l-2.35-.28q-5-.63-10.26-1.16l-3.68-.36c-4.25-.4-8.52-.75-12.91-1L553.41,35c-4.15-.25-8.4-.44-12.72-.6L537,34.32c-4.73-.13-9.51-.22-14.42-.22-43.94,0-74.53,25.51-90.93,75.81-.7,2.14-1.36,4.29-2,6.43a11.77,11.77,0,0,1-1.73,3.58c-4.85,8.26-6.74,18.12-5.63,29.35a11.74,11.74,0,0,1-.05,2.76c-.52,3.88-1,7.68-1.32,11.33v.29a11.93,11.93,0,0,1-19.8,8.91q-3.26-2.87-6.51-5.59l-1.23-1c-1.84-1.54-3.54-2.92-5.23-4.27l-1.82-1.45c-1.6-1.25-3.18-2.45-4.76-3.63l-1.79-1.33c-2.1-1.53-4.19-3-6.29-4.41C358.7,141,345.8,136.38,335,137.08c-28.51,1.43-44.54,37.65-53,67.78-.1.34-.21.68-.34,1-3.85,10.11-7.37,24-10.47,41.15,0,.18-.07.37-.11.55a650.39,650.39,0,0,0-13.5,79.94,11.88,11.88,0,0,1-6,9.15,6.57,6.57,0,0,0-2.44,1.91,5.37,5.37,0,0,0,.34,2.23,54,54,0,0,0,4.24,8,11.88,11.88,0,0,1,1.79,6.79c-1.52,36.52,1.84,63.93,4.53,86,.37,3,.73,6,1.07,8.86,0,.14,0,.28,0,.42.19,2.33.39,4.58.61,6.71,0,.22,0,.44.05.67.36,7.74.82,14.21,1.38,19.23,3.22,29,36,48.31,36.37,48.51s.43.26.64.4a11.87,11.87,0,0,1,5.12,11.86c-2.58,15.24-4.92,31.78-7,49.17l-.87,7.62a11.91,11.91,0,0,1-1.95,5.32c-2,3-3.93,5.93-5.74,8.77-13.84,21.87-11.45,39.13-7,49.75,2,4.73,4.18,9.78,6.56,15a11.88,11.88,0,0,1,.91,6.78c-1,6-2,11.46-3.08,16.37-2.95,13.29-.89,19,.6,21.3a7.16,7.16,0,0,0,4.91,3.06,11.87,11.87,0,0,1,9.63,10.19l3.14,24.78a11.88,11.88,0,0,1-9,13c-.8,10.08-2.1,25.41-2.23,27,0,.36,0,.75,0,1.11.18.35.85.78,2.37,1.09.67.13,2,.43,3.76.84a11.88,11.88,0,0,1,9,9.75L316.57,855c0,.22.06.44.08.65l.32,3.5c2.44,23.92,5.14,46.43,8,66.91a11.88,11.88,0,0,1-13.74,13.36c-28-4.74-67.75-19.44-98.32-62.55-19.57-28.41-32.73-65.34-39.21-109.91-3.81-28.76-4.65-60.87-2.53-95.59q0-.42.08-.85c4.62-34.63,16.36-54.69,24.93-69.33,4.45-7.36,8.3-13.9,11.26-20.84a11.88,11.88,0,0,1,7.67-6.76,7.15,7.15,0,0,0,.71-.24c.41-1.58.83-3.51,1.13-5.37a11.91,11.91,0,0,1-3.61-10.48c.53-3.4,1.05-6.86,1.54-10.36,0-.18.05-.36.09-.55a114,114,0,0,0,1.93-19.12c0-.14,0-.27,0-.41,1.6-32.66-8.94-49.06-36.4-56.61l-.36-.1-.63-.16c-1.57-.44-3.17-.85-4.85-1.2-31.3-6.5-59.77,22.11-76.18,76.49A11.87,11.87,0,0,1,91.76,553a11.74,11.74,0,0,1-1.78.59,11.86,11.86,0,0,1,3.47,11.26C82.6,613.44,82,671.95,91.67,734c14,89.76,60.07,242.55,210.93,257.39l.41,0,26,3.47a11.87,11.87,0,0,1,10,9.1l.24,1c.44,1.92.89,3.84,1.34,5.7a11.87,11.87,0,0,1-17.49,13.08c-1.38-.8-2.78-1.6-4.27-2.44l-.38-.21-.33-.19c-.31,3.65-.09,10.33,2.12,21l.07.34c0,.17.44,2.27,1.33,5.77l.33,1.28c0,.07.1.38.13.46l.16.61a11.94,11.94,0,0,1,.45,3.3c-.09,15.17,9.47,35.39,27.64,58.49.17.22.34.44.49.67a163.47,163.47,0,0,0,34.8,37.53c.29.23.58.47.85.73,5.48,5.14,10,9.1,12.81,11.52a11.88,11.88,0,0,1-1.36,19,11.87,11.87,0,0,1,2,8.07c-.44,3.87-.7,8.64-.79,14.15a65.48,65.48,0,0,0,2.47,20.09,11.64,11.64,0,0,1,.35,1.5c.94,5.54,2.52,9.8,4.6,12.35a6.11,6.11,0,0,0,.86.31c1.87-2.43,4.21-5.34,6.67-8.07a21.29,21.29,0,0,1,15-7.18c7.23-.31,14.55,3,21.75,9.77,2.8,2.64,12.92,9.57,28.16,16.94Zm-49.42-3.09Zm623-8.26.5.37Zm-646.36-.59Zm608.25-34.42,0,0Zm-669.36-9.79a12,12,0,0,1,4.39,1,11.87,11.87,0,0,1,4.49-2.52,11.91,11.91,0,0,1,1.72-5.19,11.87,11.87,0,0,1-2.1-6.83,11.9,11.9,0,0,1-5.4-3.37,12,12,0,0,1-4.38.41,11.9,11.9,0,0,1-3.7,5.94,11.88,11.88,0,0,1,.13,5A11.92,11.92,0,0,1,345.36,1193.56Zm668.24-366h0ZM294.31,796.43c0,.07,0,.1,0,.1s0,.12,0,.12S294.3,796.56,294.31,796.43Zm-2.18-26.77ZM216.44,573Zm0-15h0Zm0,0h0Zm0-.05h0Zm731.88-93.34h0Zm-.88-1.61Z"/><g class="cls-2"><polygon points="60.34 550.7 57.04 542.2 56.65 542.19 67.22 535.56 56.58 530.59 59.97 517.3 47.19 519.24 42.68 507.98 34.99 516.93 23.45 511.95 23.44 524.52 11.26 527.36 19.39 535.93 16.87 535.63 11.13 543.49 14.14 543.84 11.83 546.99 24.58 548.5 24.19 558.16 25.05 557.71 24.89 561.67 35.98 555.85 44.33 564.51 48.51 553.87 61.04 554.2 59.67 550.68 60.34 550.7"/></g><path d="M44.32,572.43a7.91,7.91,0,0,1-5.7-2.42l-4.23-4.39-5.83,3.06A7.92,7.92,0,0,1,17,561.42a7.93,7.93,0,0,1-.7-3.58l.09-2.34-5.47-.65a7.92,7.92,0,0,1-7-8.11l0-.1a7.92,7.92,0,0,1,.87-7.84L7.56,535l-2-2.15a7.91,7.91,0,0,1,4-13.15l6.06-1.41v-6.29a7.92,7.92,0,0,1,11.05-7.26l6.2,2.67,3.91-4.54A7.92,7.92,0,0,1,50,505l2.18,5.43,6.57-1a7.91,7.91,0,0,1,8.86,9.79l-1.77,6.93,4.7,2.19a7.92,7.92,0,0,1,.85,13.88l-4.72,3,1,2.61a7.9,7.9,0,0,1,.53,3.07l.17.43a7.92,7.92,0,0,1-.9,7.43,7.65,7.65,0,0,1-6.68,3.36l-7-.18-2.16,5.48a7.91,7.91,0,0,1-5.83,4.87A8,8,0,0,1,44.32,572.43ZM36,547.94a7.92,7.92,0,0,1,5.54,2.25A7.81,7.81,0,0,1,48.72,546l1.19,0a7.43,7.43,0,0,1-.71-1.72,7.94,7.94,0,0,1,2-7.84,7.92,7.92,0,0,1-2.32-7.8l.43-1.7-1,.15a7.91,7.91,0,0,1-8.2-4.16,7.9,7.9,0,0,1-8.33,1.29l-.49-.21v.53a7.92,7.92,0,0,1-5.14,7.41,7.91,7.91,0,0,1,.25,7.55,7.71,7.71,0,0,1-.73,1.19,7.91,7.91,0,0,1,6.76,8.08A7.88,7.88,0,0,1,36,547.94Z"/></g><path class="cls-3" d="M348.3,1005.54c-174.47,12.73-247-128.45-268.8-267.82C53,567.84,105.82,444.56,176.66,459.23S225,556.39,225,556.39c-3.53,57.68-49.8,56.82-43.87,170,11.69,223.23,157.73,204.81,157.73,204.81Z"/><path d="M326.65,1010.3c-71.06,0-129.19-26.55-173.06-79.1-38.54-46.17-65.52-112.87-78-192.87-18-115.39.33-221.91,45.67-265.06,16.68-15.88,36.12-22.07,56.21-17.91s34.81,13.88,44,28.92c17.88,29.18,8.59,68.08,7.39,72.75-1.52,23.37-9.87,37.63-18.71,52.71-13.44,22.94-28.68,48.94-25.14,116.49,4.23,80.86,26.48,138.72,66.12,172,41,34.37,86.69,29.18,87.16,29.13a4,4,0,0,1,4.42,3.42l9.49,74.29a4,4,0,0,1-3.64,4.45Q337.43,1010.3,326.65,1010.3ZM165.2,462c-13.69,0-26.61,5.7-38.5,17-50.28,47.86-58,164.12-43.3,258.1,37.49,240.06,177.39,269.6,260.43,264.75l-8.48-66.37c-12.52.65-52.15-.17-89.15-31.11-41.48-34.7-64.73-94.49-69.09-177.73-3.66-69.92,12.21-97,26.22-120.9,8.76-15,16.33-27.87,17.66-49.59a4,4,0,0,1,.13-.8c.11-.39,10.45-39.5-6.41-67-8-13.09-21.12-21.6-38.87-25.28A52.39,52.39,0,0,0,165.2,462Z"/><path class="cls-4" d="M868.81,611.43c1.89,12,30.56,47.26,75.48,67.23-2,6.66-8.11,28.66-10.26,44-7,49.56,44.74,68.06,71.21,76.25s64.75-80.68,88.22-126c6.31-12.2,8.07-33.28-7.56-58-31-49-95.78-123.51-147.45-134.22"/><path d="M1008.92,803.41a16.29,16.29,0,0,1-4.85-.74c-20.21-6.25-81.71-25.29-74-80.57,1.83-13.08,6.61-31.53,9.41-41.27C894.94,660,866.91,624.76,864.9,612a4,4,0,0,1,7.82-1.24c1.57,9.9,29.14,44.65,73.18,64.23a4,4,0,0,1,2.18,4.77C946.5,685,940.16,707.47,938,723.2c-6.11,43.58,36.14,61.91,68.46,71.91,19.09,5.89,51.89-60.41,71.49-100,4.31-8.72,8.36-16.9,12-24,2.83-5.47,10.66-25.52-7.39-54-28.85-45.58-93.71-121.85-144.92-132.47a4,4,0,0,1,1.61-7.75c54,11.19,119.28,87.46,150,136,20.3,32.07,11.05,55.49,7.73,61.91-3.66,7.08-7.69,15.22-12,23.89C1055.75,757.73,1031.28,803.41,1008.92,803.41Z"/><g class="cls-2"><path class="cls-5" d="M966.68,559.49s12,35.91,28.46,32.61l6.72,73-.31,82.12s-5,35,31.56,34.6L993.42,816.2l-19.33-63.1Z"/></g><path class="cls-6" d="M963.32,252.54l127.51,16.22s27-.29,8.41,20.08S1055.43,338,996.09,347.31,914.61,246.34,963.32,252.54Z"/><path d="M989.24,351.8c-16.76,0-32.16-9-43.08-25.5-14.23-21.48-17.71-50.64-7.93-66.38,5.41-8.71,14.49-12.73,25.59-11.32l127.26,16.19c2.42,0,14.41.46,17.81,8,2.28,5.11.09,11.21-6.72,18.67l-1.13,1.24c-18.91,20.74-44.81,49.14-104.33,58.47A48.46,48.46,0,0,1,989.24,351.8Zm-29.75-95.56c-6.4,0-11.29,2.64-14.54,7.86-8.14,13.1-4.64,39,7.81,57.83,6.31,9.53,20.25,25,42.71,21.46,56.77-8.89,81.59-36.11,99.71-56l1.14-1.24c4.88-5.35,6-8.72,5.34-10.1-1-2.19-6.81-3.36-10.59-3.36h-.23a4.32,4.32,0,0,1-.5,0L962.82,256.46h0A26.38,26.38,0,0,0,959.49,256.24Z"/><g class="cls-2"><path class="cls-5" d="M300.25,1005c0-19.71-15.34-42.71-51.56-63.42-54.1-30.94-109.05-91-121.7-209.37C105.88,534.52,182.31,460.6,182.31,460.6c57.39,15.17,47.59,66.2,41.52,105.84s-38.05,55.26-41.24,107.46C165.91,947,338.81,931.25,338.81,931.25v78.88Z"/></g><path class="cls-4" d="M1003.72,959.55s29.69,29.69,34.3,89.72-54.09,56.07-54.09,56.07l-45.18-85.76Z"/><path d="M986.25,1109.36c-1.48,0-2.4-.05-2.59-.07a4,4,0,0,1-3.24-2.11l-45.18-85.76a4,4,0,0,1,.82-4.75l65-60a4,4,0,0,1,5.48.11c1.26,1.25,30.78,31.42,35.45,92.21,1.47,19.14-3.06,34.17-13.47,44.69C1014.26,1108,993.52,1109.36,986.25,1109.36Zm-42.59-88.93,42.67,81c6.23,0,24.58-1.26,36.57-13.39,8.7-8.81,12.46-21.75,11.17-38.47-3.65-47.48-23.56-75.7-30.66-84.36Z"/><path class="cls-7" d="M794.71,1184.62s-.19,1.1-.45,3c-1.45,10.74-8.94,51.06,7.16,65.8,5,4.62,15.21,2.84,15.21,2.84s8.64-11.59,11.23-17.37c1.34-3,7.65-7.54,19.67,1.49s90,52,181.14,32.15-15.25-79.9-15.25-79.9,39-26.29,39.78-115.7c.49-59.64-20.76-41.21-20.76-41.21-43.91,15.56-77.37-2.58-83.29,5.54C870.16,1149.53,722.21,1151.89,794.71,1184.62Z"/><path d="M979.61,1281.74c-68,0-121.57-28.48-134.47-38.17-6.36-4.78-10.06-4.78-11.69-4.36a3,3,0,0,0-2,1.32c-2.73,6.1-11.3,17.63-11.67,18.12a4,4,0,0,1-2.49,1.53c-1.23.22-12.26,1.95-18.56-3.82-16.39-15-11.11-50.91-8.84-66.25l.43-3,0-.16c-13.23-6.32-19-11.87-19-18.33-.13-10.59,15.37-18.06,41.05-30.44,37.56-18.09,94.31-45.44,133.57-99.25,3.7-5.07,11.12-4.11,22.37-2.64,14.62,1.91,36.65,4.79,62.17-4.07,2.84-2.15,8.3-4.57,13.71-2.08,8.94,4.12,13.18,19.44,13,46.82-.6,73-26.21,104.94-36.93,115.12a223.45,223.45,0,0,1,23.1,16.32c19,15.51,27.77,29.36,26,41.17-1.91,12.64-14.92,21.41-39.8,26.83A234.14,234.14,0,0,1,979.61,1281.74Zm-144.75-50.61c3.68,0,8.71,1.36,15,6.11,14.38,10.8,91.23,50.35,177.92,31.45,20.7-4.51,32.34-11.52,33.66-20.27,2.74-18.22-35.17-43.94-50-52.31a4,4,0,0,1-.27-6.73c.36-.25,37.33-26.6,38-112.45.27-33-6.33-38.63-8.36-39.57-2.66-1.23-5.83,1.36-5.85,1.39a4,4,0,0,1-1.27.74c-27.57,9.76-51,6.71-66.47,4.68-5.58-.73-14-1.83-15-.55C911.9,1099,854.07,1126.9,815.8,1145.34c-18.84,9.08-36.64,17.65-36.57,23.21,0,1.43,1.72,5.52,17.11,12.47a4,4,0,0,1,2.27,4.29s-.19,1.08-.43,2.87l-.44,3.09c-1.9,12.88-6.94,47.1,6.35,59.26,2.3,2.11,7.24,2.32,10.36,2.05,2.81-3.87,8.06-11.39,9.79-15.27a10.77,10.77,0,0,1,7.23-5.75A13.36,13.36,0,0,1,834.86,1231.14Z"/><path d="M927.6,1218.68c-34.17,0-78.69-7.36-134.41-30.4a4,4,0,0,1,3-7.31c146.2,60.48,214.07,9.12,214.74,8.59a4,4,0,0,1,4.92,6.2C1014.07,1197.19,986,1218.68,927.6,1218.68Z"/><path class="cls-5" d="M954.46,545.54c-.13-5.38-.35-10.91-.75-16.68-2.4-34.93-5.66-51.15,5.62-73.87,53.59-21.21,75.39-100.61,2.48-188-109.48-131.18-424.1-153.65-540.45,26.3-4.74,7.33-9.35,15-13.86,22.85-14.86,19.78-24,42.81-36,73.39-55,131.27-83.62,305-66.06,477.12,5.17,50.65,12.79,93.26,22.36,129.55.15.05-.57.3-.57.3s9.29,49.89,29.21,90.59c0,0,33.07,63.41,54.46,78.61-4.3,5.7,89.52,80.78,207,27.92,19.69,8.35,89.95,37.21,217.76,13.21,143.67-27,229.43-208,167.34-364.6-30.46-76.84-33.84-131.71-41.83-170.94C947,621.26,949.37,586.94,954.46,545.54Z"/><g class="cls-2"><path class="cls-5" d="M368.51,1042.21a47.88,47.88,0,0,0,13.78,9.09Z"/></g><g class="cls-2"><path class="cls-5" d="M348.75,887.89c14.45-31.78,35.1-56.53,35.1-56.53l-87.32-23.42,32.22,208,39.75,26.23c-17.39-16.12-28.27-47.15-33.05-91.14-1.4-12.89.57-26.35,4.37-39.4a39.65,39.65,0,0,0,10.47,14.9c4.71,4,52.43,11.48,69.58,9.5s36.3-16.1,37.29-20.71S458.8,895,458.8,895Z"/></g><g class="cls-2"><path class="cls-5" d="M479.43,384.94l14.69-9.75s67.94,31.38,139.53,21.75c60.71-8.17,104.44-32.66,131.75-44.79s69.58-12,93.89-1.15c21.67,9.71,62.16,26,93.5,18.28,18.31-4.49,42.18-10.7,43.66-5.26s8.59,91-82.16,91c0,0,80.84,14.89,99.14-58.59,15-60.17-27.75-70.46-27.75-70.46l-49.06,20.36-43.58-2.86-56.4-21.14-90.43,12.87-46.6,29.36-40.8,2L518,360.93l-62.34-25.77-17.32,41.43Z"/></g><path d="M970.6,677.86l-.37,0a4,4,0,0,1-3.58-4.31c4.67-50.72,29.6-82.57,30.66-83.91a4,4,0,0,1,6.2,4.93c-.24.31-24.53,31.44-29,79.7A4,4,0,0,1,970.6,677.86Z"/><path d="M742.38,1222.33c-75.42,0-119.5-23.74-122-25.13a4,4,0,0,1,3.83-6.93c.82.45,83.83,45,215.93,11.39,62.18-15.81,117.39-57.69,147.68-112,37.43-67.13,40.38-152.19,8.76-252.84C941.65,662,943.16,620,945.43,556.53c.31-8.5.63-17.4.82-27.07,1.31-63.69,8.23-75.28,10.32-77.31a4,4,0,0,1,5.76,5.42c-.56.84-6.93,11.78-8.16,72.06-.2,9.71-.52,18.65-.83,27.19-2.25,62.67-3.74,104.07,50.78,277.63,32.29,102.81,29.13,190-9.4,259.07-31.33,56.18-88.39,99.48-152.64,115.82C804.65,1218.86,771.22,1222.33,742.38,1222.33Z"/><g id="Fill-15"><path d="M838.51,356.1c18.12,5.13,18.87,19.78,3.93,27.77s-15.77,9.5-34.43,4.22c-20.24-5.73-29.73-24.6-11.31-29.43s31.7-5.44,41.8-2.56"/></g><g id="Fill-15-2" data-name="Fill-15" class="cls-2"><path class="cls-5" d="M838.51,358.58c18.12,5.13,18.87,19.78,3.93,27.77s-15.77,9.5-34.43,4.22c-20.24-5.73-29.73-24.6-11.31-29.43s31.7-5.44,41.8-2.56"/></g><g id="face_mask" data-name="face mask"><path d="M414.16,301.23S479.8,386,594.71,388.59s151.81-50.1,209.12-53.43c56.73-3.3,74.21,30,140.13,21.11,48.63-6.57,57.9-11.44,57.9-11.44s-33.4-160.92-240.54-178.11S456.21,232.6,414.16,301.23Z"/><path d="M602.75,392.64c-2.67,0-5.38,0-8.13-.09-115.46-2.62-182.93-88-183.6-88.9a4,4,0,0,1-.24-4.49c36-58.82,129.54-154.77,350.86-136.39,108.4,9,169,57.69,200.7,97,34.45,42.63,43,82.61,43.39,84.29a4,4,0,0,1-2,4.31c-1,.53-11.27,5.38-59.21,11.86-36.55,4.94-58.68-2.8-80.08-10.29-18-6.3-35-12.23-60.35-10.79-21.72,1.26-40.63,10-62.53,20C708.9,374.12,668.6,392.64,602.75,392.64ZM419,300.9c11.05,12.95,74.25,81.43,175.78,83.73,68.91,1.65,108.48-16.64,143.43-32.7,22.62-10.4,42.16-19.38,65.37-20.73,26.87-1.59,45.45,4.94,63.41,11.22,20.53,7.17,41.77,14.6,76.41,9.91,33.85-4.57,48.26-8.26,53.72-10C990.88,319.6,946.27,186,761,170.66,547,152.93,455.18,243.47,419,300.9Z"/><path class="cls-4" d="M684.76,327.52c-11.34,4.15-22.42,7.93-27.71,15.27s2.65,16.86,14.84,16.86,36.63,8.34,41.89-17.57C716.84,327.05,696.09,323.37,684.76,327.52Z"/><path d="M689.71,364.86a102.72,102.72,0,0,1-10.65-.71c-2.66-.28-5.18-.54-7.17-.54-8.43,0-15.89-4-19-10.08a12.18,12.18,0,0,1,1-13.06c5.75-8,16.53-11.91,27.94-16.08l1.62-.59c8.54-3.12,21.85-2.53,29.31,3.9a15.19,15.19,0,0,1,5,15.18C713.89,361.44,701.14,364.86,689.71,364.86Zm-3.59-33.62-1.62.6c-10.24,3.74-19.91,7.27-24.24,13.28a4.33,4.33,0,0,0-.35,4.82c1.47,2.87,5.74,5.77,12,5.77,2.4,0,5.11.28,8,.58,15.48,1.61,26.68,1.48,30-15,.66-3.24-.09-5.65-2.36-7.6-5-4.25-15.26-4.72-21.43-2.46Z"/><path d="M694.8,343.43c0,3.73-3,4.92-6.75,4.92s-8.25-1.19-8.25-4.92,4.52-8.27,8.25-8.27S694.8,339.7,694.8,343.43Z"/><path class="cls-4" d="M912.85,307.8c11.66,3.12,23,5.88,29,12.72s-1.12,17-13.27,18.13-35.73,11.6-43.3-13.73C880.86,310.21,901.19,304.68,912.85,307.8Z"/><path d="M906.92,345.64c-10.19,0-20.71-3.73-25.46-19.59A15.21,15.21,0,0,1,885,310.48c6.86-7.07,20.05-8.86,28.84-6.51l1.65.44c11.75,3.12,22.84,6.08,29.29,13.51A12.18,12.18,0,0,1,947,330.84c-2.57,6.38-9.65,11-18,11.75-2,.18-4.46.66-7.09,1.18A77.7,77.7,0,0,1,906.92,345.64ZM906,310.93c-5.63,0-11.95,1.66-15.26,5.07-2.08,2.15-2.61,4.62-1.67,7.78,4.82,16.1,16,15.21,31.25,12.22,2.84-.56,5.52-1.08,7.9-1.3,6.21-.56,10.21-3.83,11.41-6.82a4.34,4.34,0,0,0-.78-4.77c-4.85-5.59-14.81-8.24-25.35-11l-1.66-.44A23.11,23.11,0,0,0,906,310.93Z"/><path d="M904.28,324.55c.34,3.71,3.45,4.63,7.16,4.29s8.11-1.93,7.77-5.64-5.24-7.83-9-7.5S903.94,320.83,904.28,324.55Z"/><g class="cls-2"><path class="cls-5" d="M695.23,331.64c5.16,0,9.87,1.68,12,4.28.84,1,1.86,2.82,1.1,6.52-3,14.81-10.4,16-17.06,16A79.5,79.5,0,0,1,680,357.38a78.54,78.54,0,0,0-9-1c-4.86-.13-7.88-2.67-9-4.81a3.52,3.52,0,0,1,.07-3.91c4.22-6.32,14.12-10.15,24.61-14.21l1.75-.68a19.31,19.31,0,0,1,6.79-1.14m0-7.92a27.08,27.08,0,0,0-9.66,1.68c-12.24,4.75-24.19,9.05-30.07,17.87s2.27,20.68,15.29,21c5.39.14,13,2.1,20.47,2.1,10.6,0,21-3.91,24.82-22.37,2.88-14-9.43-20.31-20.85-20.31Z"/></g><g class="cls-2"><path class="cls-5" d="M905.77,313h0a17.31,17.31,0,0,1,3.93.41l1.83.43c10.95,2.56,21.29,5,26.2,10.52a3,3,0,0,1,.49,3.35c-.89,2.49-3.91,5.34-8.64,6.1a81.35,81.35,0,0,0-8.85,2.15c-4.77,1.34-10.18,2.86-14.91,2.86-5.48,0-11.11-1.63-15.13-13.46-1.19-3.5-.34-5.34.53-6.56,2.41-3.36,8.53-5.8,14.55-5.8m0-7.92c-12.48,0-27.65,7.92-22.58,22.82s13.65,18.83,22.62,18.83,18.5-4.06,25-5.1c13-2.07,19.75-14.71,12.83-22.52s-19.36-10.4-32.15-13.4a25.27,25.27,0,0,0-5.74-.62Z"/></g></g><g class="cls-2"><path class="cls-5" d="M625.72,580.23s52.77,93,54.09,179.43c0,22.14-12.53,31.13-15.83,31.07s-194.61-8.93-194.61-8.93,8.52,10,0,17.62-174.16-24.68-174.16-24.68L288,717.45l246.72-17.81Z"/></g><path d="M537.14,1218.16c-42.53,0-84.88-13.37-110.49-33.86-34-27.23-60.93-55.41-81.57-104.43-20.22-48-33.89-115-44.31-217.26C279.64,655.4,325.4,429.34,417.35,286.69,464.27,213.91,562.12,167,679.11,161.08c120.5-6.06,232.39,32.81,285.12,99,63.69,79.92,56.07,143.78,30.2,174.18-29,34.06-81.42,35.85-136.84,4.69l-.35-.22c-16.85-12-30.6-16.85-47.07-4.22s-102,49.59-174.86,19.62a4,4,0,1,1,3-7.32c68.72,28.26,152-7,167-18.57,21.39-16.41,39.69-7.85,56.3,3.92,51.83,29.09,100.39,27.94,126.74-3,23.93-28.1,30.33-88-30.36-164.11-51.2-64.25-160.47-102-278.53-96-114.45,5.74-210,51.35-255.5,122C333,432.22,287.69,656.28,308.65,861.8c20.83,204.33,53.31,260.59,123,316.31,40.45,32.38,124.73,46.11,181,14.07,43-24.49,61-71,52.09-134.45C651.86,966.47,610.23,924.83,577.56,906a4,4,0,0,1,4-6.86c34.19,19.75,77.74,63.11,91,157.53,11.88,84.58-23.9,124.14-56,142.43C593.12,1212.39,565.09,1218.16,537.14,1218.16Z"/><path class="cls-8" d="M988.53,65.45C959.77,62.25,933.22,61.27,877,110c-15.07-30.1-41.19-58.87-68.58-70.07-71.29-29.15-83.71,11.93-142.77,8l0,0c-35.54-13.55-82.53-23.78-143.55-23.78-88.8,0-109.09,92.22-113.59,141.42a279.62,279.62,0,0,0-28.9-22.68c-63.33-42.22-97.85,7-109.51,60.69-33.29,153.3-23.75,216.38-19.79,263.87s45.86,69.13,45.86,69.13,97.29-257.8,181-304.83C527.09,288,625.53,307,625.53,307c118,21.14,254.6,35.06,367.63-65.2C1092.44,153.74,1026.15,69.63,988.53,65.45Z"/><path d="M305.76,546.59a3.93,3.93,0,0,1-2-.52c-2.08-1.18-50.93-29.48-57.38-78.12-7.9-59.57-1.82-208.45,20-265.8,12.36-32.47,27.92-67.86,56.26-76.92,17.12-5.47,36.45-.78,59.15,14.34,19.9,13.27,39.83,32.24,60.93,52.32,47.46,45.19,101.25,96.4,180.35,110.68,118.82,21.45,255,36,367.41-63.72,59.17-52.49,54.56-99.41,46.55-122.7-10-29-33.89-47.41-51.26-48.5-34.28-2.15-65.42,4.69-106,45.12a4,4,0,0,1-5.59-5.61c42.7-42.52,75.72-49.71,112.1-47.41,23.15,1.46,48.19,24.6,58.25,53.82,8.66,25.16,13.83,75.66-48.77,131.2-115.06,102.06-253.42,87.37-374.08,65.59-81.43-14.7-136.13-66.79-184.4-112.74-20.84-19.84-40.52-38.58-59.85-51.47-20.56-13.7-37.68-18.07-52.34-13.39-23.8,7.61-38.71,39.2-51.27,72.2-21.46,56.35-27.37,203.12-19.57,261.94,5.94,44.78,53,72,53.45,72.29a4,4,0,0,1-2,7.4Z"/><path d="M408.55,169.49l-.36,0a4,4,0,0,1-3.58-4.3c2.28-24.94,8.6-60.93,25.7-90.77,20.63-36,51.53-54.25,91.84-54.25,180.82,0,239.71,87.79,242.13,91.53a4,4,0,0,1-6.64,4.31c-.57-.88-59.32-87.92-235.48-87.92-36.24,0-98.67,17.9-109.66,137.82A4,4,0,0,1,408.55,169.49Z"/><path d="M717.83,263.47c-140.58,0-255.31-43.45-257-44.11a4,4,0,0,1,2.85-7.38c2.46,1,247.1,93.54,458.37,6C914.2,196.14,870,78.09,820.61,50.56c-49.18-27.41-73.86-18.49-100-9-16,5.8-32.6,11.8-55.24,10.29a4,4,0,0,1-3.69-4.21,4.07,4.07,0,0,1,4.21-3.69c21,1.41,36.76-4.31,52-9.83,26.64-9.64,54.18-19.61,106.53,9.57,56.87,31.7,104.31,169.44,106.3,175.29a4,4,0,0,1-2.2,4.92C858.8,253.45,785.33,263.47,717.83,263.47Z"/><path class="cls-7" d="M426.73,182.14s301.74,99.77,487.57,8l12.72,30s-179,92.53-464.77-4.54C450.35,204.64,450.2,202.94,426.73,182.14Z"/><path d="M715.47,263.67c-70.53,0-156.42-10.93-254.49-44.25a4,4,0,0,1-1.42-.85c-4.38-4.06-7.17-6.85-10.11-9.8-5.16-5.17-10.49-10.51-25.34-23.68a4,4,0,0,1,3.87-6.72c3,1,302.34,98.2,484.58,8.26a4,4,0,0,1,5.4,2l12.72,30a4,4,0,0,1-1.83,5.06C927.65,224.34,849.21,263.67,715.47,263.67ZM464.32,212.2c146.49,49.62,264,48.19,336.92,38.23,66.75-9.13,109-26.79,120.65-32.15l-9.62-22.71c-159.9,76.07-403.72,14.52-469.8-4.53,5.95,5.52,9.4,9,12.57,12.15C457.8,205.93,460.41,208.54,464.32,212.2Z"/><path d="M832.28,164.92c7,.72,13.93-2.13,20.75-.09l-.95-7.23c-12,8.77-14.87,22.69-16.26,36.75-.5,5.07,7.42,5,7.92,0,1.07-10.83,2.92-23,12.34-29.91,2.69-2,2.53-6.2-.95-7.23-7.72-2.31-15.06.61-22.86-.2-5.06-.52-5,7.4,0,7.92Z"/><path d="M791.47,170.88c7.43.85,14.81-2.07,22.09.18l-.95-7.23c-12.77,9-15.91,23.72-17.56,38.46-.56,5.06,7.36,5,7.92,0,1.29-11.57,3.47-24.42,13.64-31.62,2.75-1.95,2.47-6.17-.95-7.23-8.12-2.52-16,.47-24.19-.47-5.05-.58-5,7.34,0,7.92Z"/><path d="M744,175.71c8,.83,15.92-2.4,23.74-.06l-.95-7.23c-13.5,9.83-16.68,25.53-18.25,41.29-.51,5.07,7.41,5,7.92,0,1.25-12.53,3.42-26.51,14.33-34.45,2.69-2,2.52-6.2-.95-7.23-8.72-2.61-17,.69-25.84-.22-5.06-.53-5,7.39,0,7.92Z"/><path d="M888.93,608.6a3.94,3.94,0,0,1-2.86-1.22c-45-46.89-110.26-17.27-110.91-17a4,4,0,1,1-3.35-7.17c.71-.34,71.08-32.27,120,18.66a4,4,0,0,1-2.86,6.7Z"/><g class="cls-2"><path class="cls-5" d="M699.61,461.45S775.87,454.81,803,436s25.18-17.93,51-4.23,69.86,42.1,84.94,32.3l-30.3,146.69s-69.52-50.42-124.48-28c0,0,76.32-6,111.94-46.29C944,466.76,849.95,432.29,814.61,445,768.76,461.49,699.61,461.45,699.61,461.45Z"/></g><g class="cls-2"><path class="cls-5" d="M1020.74,838.6a3.76,3.76,0,0,1-1,.61l-13.07,5.32c-2.52,1-5.43-1.22-6.46-5l-.79-2.9a51.68,51.68,0,0,1-6.36,1.52s-4.36,1.05-12.22,2.75l.54,2a7.93,7.93,0,0,1-5.7,9.69l-22.12,5.8a8.07,8.07,0,0,1-9.83-5.61l-1.17-4.31c-14.91,2.7-32.62,5.64-52.36,8.44-5.49,23-23.44,39.8-44.79,39.8-18.31,0-34.11-12.41-41.71-30.4-12.86,1-26,1.72-39.41,2.24l.05,2.85a8,8,0,0,1-7.9,8.05l-24.36.42a8,8,0,0,1-8.18-7.78l0-2.78c-2.35,0-4.7,0-7.05,0-7.06-.07-14.23-.24-21.47-.49v.68a8,8,0,0,1-8.14,7.82L664.05,877a8,8,0,0,1-7.94-8l0-2.25c-12.46-.87-25.05-1.95-37.69-3.18a8,8,0,0,1-8.71,7l-23.07-2.12a8,8,0,0,1-7.26-8.62l0-.51c-15.09-1.84-30.13-3.86-45-6l-.32,2.88a8,8,0,0,1-8.85,7l-23-2.45a8,8,0,0,1-7.13-8.72l.52-4.7c-29.27-4.75-57.2-9.83-82.6-14.76-70.16-13.61-71.85.49-3.51,13.83,26.32,5.14,52.62,10,83.24,15l2.35,5.17a8,8,0,0,0,7.13,8.72l23,2.45c4.4.47,16.82-2.37,17.29-6.7l.32-2.88c14.85,2.15,18,3.32,33.1,5.16l2.39.74c-.41,4.33,3.85,8.52,8.25,8.93l23.07,2.12c4.34.4,13.66-2.9,14.16-7.14,12.64,1.24,15.91,1.11,28.37,2l2.28,3.3c-.06,4.35,5.08,8.3,9.5,8.35l23.17.29c4.42.06,11-2.14,11.06-6.49,0,0,11.5-1.59,18.56-1.52,2.36,0,1.69,0,4,0l1.32,2.49c.08,4.35,5.5,8.15,9.92,8.07l24.36-.42c4.42-.08,11.48-3.62,11.4-8l3.13-3.21c13.38-.52,16.17-1.78,29-2.73,7.6,18,27.1,31.18,45.41,31.18,21.35,0,42.61-16.31,48.1-39.26,19.74-2.8,25.73-4.68,40.64-7.38l3.72,2.77c1.14,4.21,11.41,6.68,15.68,5.56l22.12-5.8c4.27-1.12,8.86-6.87,7.72-11.08l2.55-1.76c7.86-1.7,7.11-1.6,7.11-1.6s-6.11,1.69-2.59.62l5.29,2c1,3.77,8.37.8,10.9-.23Z"/></g><path class="cls-7" d="M299.56,761s-14.24-4.89-14.9,4.15S282,797.42,282,797.42s-1.32,11.06,11.87,13.7,249.56,62.26,424.18,64C858,876.5,990.15,844,990.15,844s19.94-3.17,19.39-13.06-4.31-32-4.31-32-7.71-17.05-19.73-8.16c-9.28,6.86-150.24,38.95-298.2,32.26C523.15,815.58,299.56,761,299.56,761Z"/><path d="M726.72,879.11q-4.34,0-8.68,0c-72.11-.72-202.66-12-415.11-61.81-5.18-1.22-8.54-2-9.81-2.26-13.27-2.66-15.63-13-15-18h0s2-23.11,2.62-32.11a9.1,9.1,0,0,1,4.06-7.28c5.36-3.55,13.81-1.08,15.89-.39,7.17,1.74,226.79,54.63,386.82,61.86,148,6.7,286.66-25.12,295.68-31.49,5.11-3.77,9.63-3.67,12.5-2.92,8.23,2.14,12.7,11.57,13.18,12.63a4,4,0,0,1,.3,1c.15.91,3.8,22.46,4.35,32.46.73,13.08-20.32,16.81-22.72,17.19C989.8,848.14,862.34,879.11,726.72,879.11ZM291.86,763.62a5.22,5.22,0,0,0-2.73.55c-.16.1-.46.3-.53,1.25-.66,9.06-2.64,32.34-2.64,32.34-.12,1.34-.26,7.69,8.71,9.48,1.3.26,4.74,1.06,10.06,2.31,211.75,49.63,341.68,60.89,413.38,61.6,137.85,1.26,269.78-30.69,271.1-31,6-1,16.63-4.56,16.39-9-.48-8.71-3.59-27.58-4.17-31-1.11-2.2-4.12-6.88-7.77-7.82-1.8-.47-3.69.07-5.79,1.63-11.49,8.5-155.72,39.56-300.74,33-162.67-7.35-386.26-61.58-388.51-62.12l-.34-.1A22.16,22.16,0,0,0,291.86,763.62Z"/><ellipse class="cls-8" cx="844.74" cy="848.02" rx="45.85" ry="54.51"/><path d="M844.74,906.49c-27.47,0-49.81-26.23-49.81-58.47s22.35-58.47,49.81-58.47,49.81,26.23,49.81,58.47S872.2,906.49,844.74,906.49Zm0-109c-23.1,0-41.9,22.68-41.9,50.55s18.79,50.55,41.9,50.55,41.9-22.68,41.9-50.55S867.84,797.46,844.74,797.46Z"/><path d="M893.09,858.6a6,6,0,0,1-4.69-2.3l-20.61-26.56a5.94,5.94,0,1,1,9.39-7.28l14.07,18.14,7.34-19.69a5.94,5.94,0,0,1,11.12,4.14l-11.06,29.67a5.95,5.95,0,0,1-5.56,3.87Z"/><path d="M882.28,885.24a5.91,5.91,0,0,1-3.74-1.33l-75.73-61.46a5.94,5.94,0,1,1,7.48-9.22L886,874.69a5.94,5.94,0,0,1-3.75,10.55Z"/><rect class="cls-8" x="658.62" y="809.77" width="38.65" height="73.22" rx="2" ry="2" transform="translate(10.71 -8.47) rotate(0.72)"/><path d="M689,887.08h-.15L666,886.79a11.89,11.89,0,0,1-11.72-12l.72-57.38a11.8,11.8,0,0,1,3.59-8.35,12,12,0,0,1,8.44-3.38l22.82.29a11.89,11.89,0,0,1,11.72,12l-.72,57.38A11.89,11.89,0,0,1,689,887.08Zm-.05-7.92H689a4,4,0,0,0,4-3.91l.72-57.38a4,4,0,0,0-3.91-4L667,813.58h-.05a4,4,0,0,0-4,3.91l-.72,57.38a4,4,0,0,0,3.91,4Z"/><path d="M686.08,841.87a176.14,176.14,0,0,1-28-2.59,4,4,0,0,1,1.42-7.78c.2,0,20.22,3.64,35.06,2.05a4,4,0,0,1,.84,7.87A88.17,88.17,0,0,1,686.08,841.87Z"/><rect class="cls-8" x="724.54" y="810.04" width="39.83" height="75.45" rx="2" ry="2" transform="translate(-14.77 13.2) rotate(-1.01)"/><path d="M733,889.65A11.89,11.89,0,0,1,721.11,878l-1-59.61a11.9,11.9,0,0,1,11.67-12.08l24-.42a12.07,12.07,0,0,1,8.45,3.34,11.79,11.79,0,0,1,3.63,8.33l1,59.61a11.9,11.9,0,0,1-11.67,12.08h0l-24,.42Zm24.14-4.38h0Zm-1.19-71.48h-.07l-24,.42a4,4,0,0,0-3.89,4l1,59.61a3.93,3.93,0,0,0,1.21,2.77,3.63,3.63,0,0,0,2.81,1.11l24-.42a4,4,0,0,0,3.89-4l-1-59.6a4,4,0,0,0-4-3.89Z"/><path d="M748.85,842.8a186.85,186.85,0,0,1-25.09-1.85,4,4,0,0,1,1.19-7.82c.21,0,21,3.11,36.22,1a4,4,0,0,1,1.07,7.84A99.57,99.57,0,0,1,748.85,842.8Z"/><rect class="cls-8" x="933.61" y="789.86" width="38.37" height="72.69" rx="2" ry="2" transform="translate(-180.47 272.9) rotate(-14.91)"/><path d="M949.23,868.45a11.9,11.9,0,0,1-11.48-8.82l-14.62-54.94a11.9,11.9,0,0,1,8.42-14.53l21.79-5.8a11.89,11.89,0,0,1,14.53,8.42l14.63,54.95a11.9,11.9,0,0,1-8.42,14.53h0L952.27,868A12,12,0,0,1,949.23,868.45Zm7.15-76.57a4,4,0,0,0-1,.13l-21.79,5.8a4,4,0,0,0-2.8,4.84l14.62,54.94a4,4,0,0,0,4.84,2.81L972,854.6a4,4,0,0,0,2.81-4.84L960.2,794.81A4,4,0,0,0,956.38,791.87ZM973,858.42h0Z"/><path d="M931.51,824.78a4,4,0,0,1-.36-7.9c.2,0,20.3-1.93,34.07-7.41a4,4,0,0,1,2.93,7.35c-14.84,5.91-35.4,7.86-36.27,7.94Z"/><path class="cls-8" d="M1016.42,845l-12.87,5.32c-2.49,1-5.35-1.22-6.36-5L984,796.1c-1-3.77.2-7.7,2.68-8.73l12.87-5.32c2.49-1,5.35,1.22,6.36,5l13.2,49.26C1020.11,840.07,1018.91,844,1016.42,845Z"/><path d="M1002.31,854.55a7.58,7.58,0,0,1-3.38-.81,11.24,11.24,0,0,1-5.56-7.36l-13.2-49.26c-1.56-5.83.59-11.59,5-13.41L998,778.39a7.32,7.32,0,0,1,6.13.26,11.24,11.24,0,0,1,5.56,7.36l13.2,49.26c1.56,5.83-.59,11.59-5,13.41L1005.06,854A7.19,7.19,0,0,1,1002.31,854.55Zm-1.53-68.73L988.18,791a5,5,0,0,0-.37,4l13.2,49.26a4.18,4.18,0,0,0,1.29,2.25l12.54-5.19a4.85,4.85,0,0,0,.43-4.06l-13.2-49.26A4.18,4.18,0,0,0,1000.78,785.82Z"/><path d="M988.11,815.44a4,4,0,0,1-.57-7.87c.12,0,11.8-1.78,19.38-6.52a4,4,0,0,1,4.2,6.71c-9,5.64-21.89,7.56-22.43,7.64A3.64,3.64,0,0,1,988.11,815.44Z"/><rect class="cls-8" x="585.3" y="802.23" width="38.65" height="73.22" rx="2" ry="2" transform="translate(80.6 -52.57) rotate(5.33)"/><path d="M613.34,880.34c-.37,0-.74,0-1.12-.05l-22.72-2.12a11.9,11.9,0,0,1-10.72-12.93l5.34-57.14A11.9,11.9,0,0,1,597,797.38l22.72,2.12a11.9,11.9,0,0,1,10.72,12.93l-5.33,57.13a11.9,11.9,0,0,1-11.81,10.77Zm-17.41-75.09a4,4,0,0,0-3.93,3.59L586.66,866a4,4,0,0,0,3.57,4.31L613,872.41h0a4,4,0,0,0,4.31-3.57l5.33-57.14a4,4,0,0,0-3.57-4.31l-22.72-2.12Z"/><path d="M620.57,835.32c-15.74,0-34.39-4.94-35.2-5.16a4,4,0,1,1,2-7.65c.19.05,19.82,5.3,34.79,4.86a4,4,0,0,1,.2,7.92Z"/><rect class="cls-8" x="502.7" y="794.75" width="38.65" height="73.22" rx="2" ry="2" transform="translate(92.28 -51.25) rotate(6.16)"/><path d="M530.3,873a12,12,0,0,1-1.28-.07l-22.69-2.45a11.89,11.89,0,0,1-10.53-13.08L502,800.33A11.88,11.88,0,0,1,515,789.8l22.69,2.45a11.89,11.89,0,0,1,10.53,13.08l-6.16,57.06A11.89,11.89,0,0,1,530.3,873Zm-16.54-75.34a4,4,0,0,0-3.93,3.54l-6.16,57.05a4,4,0,0,0,3.51,4.36L529.87,865h0a4,4,0,0,0,4.36-3.51l6.16-57.06a4,4,0,0,0-3.51-4.36l-22.69-2.45Z"/><path d="M539.07,828.08c-15.95,0-35.35-5.44-36.18-5.67a4,4,0,0,1,2.16-7.61c.2.05,19.84,5.53,34.71,5.37h0a4,4,0,0,1,0,7.92Z"/><g class="cls-9"><path d="M844.74,906.49c-29,0-52.58-25.07-52.58-55.89,0-32.24,22.35-58.47,49.81-58.47s49.81,26.23,49.81,58.47S872,906.49,844.74,906.49ZM842,800c-23.1,0-41.89,22.68-41.89,50.55,0,26.45,20,48,44.66,48,23,0,39.13-19.73,39.13-48C883.87,822.72,865.07,800,842,800Z"/><path d="M890.33,861.17a6,6,0,0,1-4.69-2.3L865,832.32a5.94,5.94,0,1,1,9.39-7.28l14.07,18.14,7.34-19.69a5.94,5.94,0,1,1,11.12,4.14l-11.06,29.67a5.95,5.95,0,0,1-5.56,3.87Z"/><path d="M879.51,887.81a5.91,5.91,0,0,1-3.74-1.33L800,825a5.94,5.94,0,1,1,7.48-9.22l75.73,61.46a5.94,5.94,0,0,1-3.75,10.55Z"/></g><g class="cls-10"><path class="cls-7" d="M1017.39,830.91a3.7,3.7,0,0,1-1,.61l-12.87,5.32c-2.49,1-5.35-1.22-6.36-5l-.78-2.9a50.25,50.25,0,0,1-6.26,1.52s-4.29,1.05-12,2.75l.53,2a7.94,7.94,0,0,1-5.61,9.69l-21.78,5.8a7.94,7.94,0,0,1-9.69-5.61l-1.15-4.31c-14.69,2.7-32.12,5.64-51.57,8.44-5.41,23-23.09,39.8-44.12,39.8-18,0-33.59-12.41-41.08-30.4-12.66,1-25.64,1.72-38.82,2.24l.05,2.85a7.94,7.94,0,0,1-7.78,8.05l-24,.42a7.94,7.94,0,0,1-8.05-7.78l0-2.78c-2.31,0-4.62,0-6.94,0q-10.43-.1-21.15-.49v.68a7.94,7.94,0,0,1-8,7.82l-22.82-.29a7.94,7.94,0,0,1-7.82-8l0-2.25c-12.27-.87-24.67-1.95-37.12-3.18a7.93,7.93,0,0,1-8.58,7l-22.72-2.12a7.94,7.94,0,0,1-7.15-8.62l0-.51c-14.86-1.84-29.67-3.86-44.3-6l-.31,2.88a7.94,7.94,0,0,1-8.72,7L506.75,853a7.94,7.94,0,0,1-7-8.72l.51-4.7c-108.45-17.88-198.35-40.39-206.34-42-7-1.4-9.91-5.18-11.1-8.41-.44,5.27-.78,9.23-.78,9.23s-1.32,11.06,11.87,13.7c8,1.6,97.89,24.11,206.34,42l-.51,4.7a7.94,7.94,0,0,0,7,8.72L529.44,870a7.94,7.94,0,0,0,8.72-7l.31-2.88c14.62,2.15,29.43,4.17,44.3,6l0,.51a7.94,7.94,0,0,0,7.15,8.62l22.72,2.12a7.93,7.93,0,0,0,8.58-7c12.45,1.24,24.86,2.31,37.12,3.18l0,2.25a7.94,7.94,0,0,0,7.82,8l22.82.29a7.94,7.94,0,0,0,8-7.82v-.68q10.7.37,21.15.49c2.32,0,4.63,0,6.94,0l0,2.78a7.94,7.94,0,0,0,8.05,7.78l24-.42a7.94,7.94,0,0,0,7.78-8.05l-.05-2.85c13.18-.52,26.15-1.28,38.82-2.24,7.49,18,23,30.4,41.08,30.4,21,0,38.71-16.85,44.12-39.8,19.44-2.8,36.88-5.74,51.57-8.44l1.15,4.31a7.94,7.94,0,0,0,9.69,5.61l21.78-5.8a7.94,7.94,0,0,0,5.61-9.69l-.53-2c7.74-1.7,12-2.75,12-2.75a50.25,50.25,0,0,0,6.26-1.52l.78,2.9c1,3.77,3.87,6,6.36,5l12.87-5.32c2.49-1,3.69-5,2.68-8.73Z"/></g><g id="mouse"><path class="cls-11" d="M461.34,798.47s-5.06,89.91-6.26,97.26-16.75,24.32-32,26.06-57.21-.77-64.84-6.6-17.76-19.15-15-44.46,0-66.37,39-94.49c7.13-5.14,62.8,4.53,63.65,6.41S462.15,784.18,461.34,798.47Z"/><path d="M410.7,926.25c-18.82,0-47.54-2.32-54.86-7.92-6-4.62-19.76-18.55-16.49-48,.38-3.41.65-7.12.94-11,1.91-25.69,4.51-60.86,39.69-86.22,8.77-6.32,57.15,2.86,64.23,4.75,1.94.52,3.43,1,4.43,1.94.36.12.81.24,1.32.39,4.82,1.42,16.13,4.75,15.33,18.59-.21,3.73-5.08,90.21-6.3,97.67-1.59,9.72-18.82,27.46-35.46,29.35A122.7,122.7,0,0,1,410.7,926.25ZM391.34,778.63c-3.29,0-5.72.26-6.79.85-32.12,23.17-34.48,54.87-36.37,80.35-.3,4-.58,7.83-1,11.33-2.73,24.56,7.24,36.16,13.42,40.88,5.89,4.5,45.7,7.66,62,5.82,13.8-1.57,27.65-17.32,28.54-22.76,1-5.86,4.81-71.9,6.22-96.84h0c.4-7-3.95-8.86-9.67-10.55a10.77,10.77,0,0,1-4.3-1.93C437.58,783.66,406,778.63,391.34,778.63Zm51,5.66,0,.06Z"/><path d="M394,923.06a4,4,0,0,1-3.56-2.22c-15.39-31.48-9.41-50.38-9.15-51.17a4,4,0,0,1,7.52,2.47c-.1.32-5,17.07,8.74,45.22a4,4,0,0,1-3.55,5.7Z"/><path d="M421.3,876.24a3.94,3.94,0,0,1-2.06-.58c-21.46-13.11-30.8-2.66-31.19-2.21a4,4,0,0,1-5.37.66c-18.84-13.71-36.83-.37-37-.24a4,4,0,0,1-4.79-6.31c.22-.16,21.21-15.74,43.78-1.67,5.2-3.91,17.85-9.73,38.7,3a4,4,0,0,1-2.07,7.34Z"/><path d="M429.3,921.36a4,4,0,0,1-3.49-2.09c-.4-.75-9.82-18.84-8.12-56.4,1.79-39.4,24-68.93,31.94-75.24a4,4,0,1,1,4.93,6.19c-4.41,3.51-27.17,29.71-29,69.4-1.59,35.13,7.11,52.15,7.2,52.32a4,4,0,0,1-3.5,5.81Z"/></g><g class="cls-2"><path class="cls-5" d="M868.81,590.74s20.83,42.92,19.51,85.8-4,70.1-7.14,83.12c-5.94,24.41,40.09,44.58,50.33,44,57.5-3.54,48.4-9.38,51-12.89S890.25,534,868.81,590.74Z"/></g><g class="cls-10"><path class="cls-7" d="M477.22,231.73s-80.93,44.39-88.84,50.33-84.59,32.67-84.59,32.67l-54.41,46.21S247.06,445.1,251,480.67s42.23,57.47,42.23,57.47S539.05,262.34,477.22,231.73Z"/></g><path class="cls-11" d="M668.6,768.66s0-201-95.16-310.61S365.8,375.73,365.8,375.73C284.54,418.25,280,677.86,276.74,699.31s-2.64,30.78,16.49,36c137.21,50.8,330.5,38.26,353.4,40.24S668.6,768.66,668.6,768.66ZM449.74,657.41c-49.73,0-90-47.45-90-106s40.32-106,90-106,90,47.45,90,106S499.48,657.41,449.74,657.41Z"/><path d="M652.76,779.74q-3,0-6.47-.3c-3.71-.32-12.65-.24-25-.12-64.3.6-214.87,2-329.39-40.36-22.57-6.08-22.26-19.27-19-40.27.42-2.72.89-10.07,1.55-20.24,2.1-32.56,6.47-100.31,19.07-163.35C309.14,436.57,332.86,388.5,364,372.22a4,4,0,0,1,.9-.34c1.16-.28,115.93-26.62,211.56,83.57,94.21,108.55,96.1,307.69,96.13,313.1a8.62,8.62,0,0,1-2.65,6.27C666.7,778.1,660.95,779.74,652.76,779.74Zm-16.25-8.44c4.78,0,8.27.07,10.46.26,14,1.21,17.51-2,17.68-2.88v0s0,0,0,0v0c0-2-1.11-200.76-94.19-308C480.95,357.52,375,377.81,367.18,379.47c-67.92,36.38-80.7,234.35-84.9,299.49-.7,10.76-1.16,17.87-1.63,20.94-3.29,21.36-2,27.3,13.61,31.53,113.5,42,263,40.57,326.92,40C627.25,771.35,632.37,771.3,636.51,771.3Zm36-2.65h0ZM449.74,661.37c-51.83,0-94-49.31-94-109.93s42.17-109.93,94-109.93,94,49.31,94,109.93S501.58,661.37,449.74,661.37Zm0-211.94c-47.47,0-86.09,45.76-86.09,102s38.62,102,86.09,102,86.09-45.76,86.09-102S497.22,449.43,449.74,449.43Z"/><path class="cls-11" d="M900.23,456.49s-32.37,21.65-34.93,71.07,24,77,30.89,116.65c8,45.62,8,75.53-3.5,111.7-4.62,14.56,19.05,11.66,19.05,11.66s93.65-8.56,98.39-29.59c4.64-20.55,3.74-43-4.44-56.83-10.65-18.06-36.31-89.59-44.86-144.61-7.6-48.89,5.27-81.09-7.82-78.73S914.89,461.23,900.23,456.49Z"/><path d="M907.22,771.79c-5.1,0-12.8-.85-16.69-5.54-1.74-2.1-3.44-5.8-1.62-11.53,10.73-33.86,11.62-62.6,3.37-109.83-2.64-15.11-8.16-28.29-14-42.26-9.12-21.8-18.55-44.33-16.94-75.28C864,476.53,896.64,454.13,898,453.2a3.91,3.91,0,0,1,3.42-.48c14.06,4.54,38.67,3.41,50.86,1.2a8.22,8.22,0,0,1,7.19,1.7c4.33,3.8,4,11.48,3.3,25.42-.65,13.71-1.54,32.5,1.94,54.9,8.43,54.26,33.81,125.34,44.35,143.2,8.19,13.88,10.07,36.76,4.89,59.72-5.12,22.68-85.78,31.18-101.89,32.66A42.84,42.84,0,0,1,907.22,771.79ZM901,460.86c-6.09,4.84-29.64,26.08-31.75,66.91-1.52,29.15,7.56,50.84,16.34,71.81,5.76,13.75,11.7,28,14.5,44,8.48,48.63,7.54,78.35-3.63,113.58-.89,2.81-.1,3.76.16,4.08,2.17,2.61,10,3,14.64,2.45,37.81-3.46,92.17-14,95-26.52,4.75-21.07,3.22-41.74-4-54-10.81-18.33-36.79-90.87-45.36-146-3.6-23.19-2.69-42.44-2-56.49.38-8.11.82-17.29-.58-19,0,0-.25,0-.6.09C940.9,464,916.67,465.18,901,460.86Z"/><polygon points="927.02 542.63 939.73 576.85 904.25 559.74 943.96 552.52 914.3 576.85 927.02 542.63"/><path d="M939.73,580.81a3.93,3.93,0,0,1-1.72-.39l-13.74-6.62-7.46,6.12a4,4,0,0,1-6.22-4.44l2.61-7-10.67-5.15a4,4,0,0,1,1-7.46l15.38-2.8,4.38-11.8a4,4,0,0,1,3.71-2.58h0a4,4,0,0,1,3.71,2.58l3.36,9,9.16-1.66a3.91,3.91,0,0,1,4.3,2.23,4,4,0,0,1-1.08,4.72l-8,6.55,5,13.34a4,4,0,0,1-3.71,5.34ZM931,568.25l1.58.76-.58-1.58Zm-7.89-3.8h0l5.94-4.87-.12-.32-4.21.77Z"/><g class="cls-2"><path class="cls-11" d="M479.08,388.69s-12.08.45-29.25,5C433.42,410,402.08,436,367.94,445.31c-16.23,20.62-28.7,48.72-32.15,87C326.39,636.65,461.37,633,461.37,633s38.08,109.44,10.54,137.93L293.23,735.26s-26.79.66-18-38.92,10.46-104.23,10.46-104.23,16.12-147.77,50.43-184.05S479.08,388.69,479.08,388.69Z"/></g><g id="Fill-7"><path class="cls-6" d="M420.1,293.37c44.69-8.37,68-14,107.12-24.61,7.09,5.08,13.26,9.35,13.26,9.35C489.65,359.35,380.14,423.74,368,422.44c-53.2,10.72-117.1-43.14-130-75.73-7.35-22.37,25-24.34,56-30.14,16.46-3.08,35.19-6.5,55.15-10.12,22.68-4.13,46.91-8.55,71.08-13.08"/><path d="M353.86,427.76c-51.71,0-107.55-49.18-119.63-79.59-2-6.22-1.7-11.5,1-15.93,6.47-10.74,24.77-13.86,45.94-17.46,4-.67,8-1.36,12-2.11,16.46-3.08,35.2-6.5,55.17-10.13,22.67-4.12,46.89-8.55,71.06-13.07h0c46.17-8.65,69.3-14.32,106.81-24.54a4,4,0,0,1,3.35.6c7,5.05,13.2,9.3,13.2,9.31a4,4,0,0,1,1.11,5.35c-50.08,80-158,145.51-175.49,146.19A75.36,75.36,0,0,1,353.86,427.76ZM526.44,273.07c-36.67,10-59.92,15.63-105.61,24.19h0c-24.17,4.52-48.42,8.94-71.1,13.07-19.95,3.62-38.67,7-55.13,10.12-4,.76-8.12,1.45-12.13,2.13-17.64,3-35.89,6.11-40.49,13.74-1.44,2.4-1.54,5.39-.31,9.14,6.35,16,25.82,37,48.36,52.05,15.71,10.49,46.6,27.19,77.14,21a3.92,3.92,0,0,1,1.2-.05h.11c12.06,0,116.21-61.58,166.61-139.31C532.94,277.68,529.85,275.5,526.44,273.07ZM420.1,293.37h0Z"/></g><path d="M561.93,675.37c-33.83,0-53.56-8.6-54.59-9.06a4,4,0,0,1,3.22-7.23c.31.14,30.77,13.3,80.3,6.29a4,4,0,0,1,1.11,7.84A215,215,0,0,1,561.93,675.37Z"/><g class="cls-2"><path class="cls-11" d="M426.72,788.22S413,803.74,395.89,807.44c-23.87,5.16-37.68-3.25-37.68-3.25l24.08-30.68,41.17,2.27s34.24,6.68,35.13,13.42-1.26,76.66-1.26,76.66l-5.79-73S435,792,426.72,788.22Z"/></g><g class="cls-2"><path class="cls-11" d="M453.54,893.58c-24.18,25.52-28.7,4.62-28.7,4.62s-15.17,19.21-37.17,5.34c0,0-27.73,8.74-42.71-8.54,0,0,9.63,20.25,20.18,24.09s57.94,2.69,57.94,2.69l16.53-7.08,11.76-11.58S454.59,898.35,453.54,893.58Z"/></g><path d="M948.81,671.59a120.43,120.43,0,0,1-12.62-.61,4,4,0,0,1,.89-7.86c.26,0,24.71,2.7,40.69-4.06a4,4,0,0,1,3.08,7.29C970.71,670.63,958.06,671.59,948.81,671.59Z"/><path class="cls-4" d="M506.64,601c-2,12.53-32,49.48-79,70.38,2.13,7,9.71,29.88,10.74,46.05,4,62-39.58,82-74.54,79.82-28.95-1.78-71.91-83.12-92.36-131.94-5.56-13.26-8.44-34.85,7.92-60.69,32.49-51.33,100.27-129.3,154.37-140.51"/><path d="M369.06,801.39q-2.73,0-5.48-.17c-40.06-2.47-93.51-129-95.76-134.36-4.84-11.54-10.19-35.24,8.22-64.34C308.18,551.75,376.49,472,432.94,460.25a4,4,0,0,1,1.61,7.75c-53.66,11.12-121.6,91-151.83,138.75-16.49,26.06-11.85,46.93-7.61,57,25.86,61.73,65.82,128.09,89,129.52,20.63,1.29,39.8-5.34,52.56-18.14C430,761.77,436,742.43,434.41,717.7c-.9-14.15-7.15-34.15-9.82-42.7l-.76-2.45a4,4,0,0,1,2.18-4.77c46.89-20.84,75-56.68,76.72-67.38a4,4,0,1,1,7.82,1.24c-2.1,13.29-31.44,50.12-78.11,71.92,2.89,9.26,8.95,29,9.88,43.65,1.7,26.71-5.24,48.7-20.08,63.57C409,794,389.87,801.39,369.06,801.39Z"/><path d="M438.36,721.4a4,4,0,0,1-3.94-3.59c-4.45-48.26-28.73-79.39-29-79.7a4,4,0,0,1,6.2-4.93c1.06,1.33,26,33.18,30.66,83.91a4,4,0,0,1-3.58,4.31Z"/><path class="cls-7" d="M308.2,1046.35s15.62,84.72,85.76,126.28c0,0-13.87,55.35,3.51,75.2,4.62,5.28,15.17,4.62,15.17,4.62a148.81,148.81,0,0,1,9.9-12.53c2.25-2.5,8.58-7.26,19.79,3.3s84.85,55.41,180,45.52-6.47-83.12-6.47-83.12,55.75-29.06,66.63-120.06c7.26-60.69-16.48-44.33-16.48-44.33s-32.06,23.74-101.61,31.13c-136.56,14.51-183.61-16.64-235.61-56.37C298.29,992.7,308.2,1046.35,308.2,1046.35Z"/><path d="M595.12,1294.1c-84.39,0-146.69-39.7-155.51-48-3.93-3.7-7.48-5.54-10.24-5.48a5.42,5.42,0,0,0-3.89,1.94,144.81,144.81,0,0,0-9.59,12.15,4,4,0,0,1-3,1.69c-1.28.08-12.66.59-18.4-6-16.36-18.69-7.7-64-5-75.91-68.75-42.45-84.5-124-85.15-127.46h0c-1-5.35-5.35-32.39,5.92-39.3,5.26-3.22,12.3-1.52,20.94,5.08,55.73,42.59,102.05,69.46,232.79,55.58,67.45-7.17,99.36-30.15,99.68-30.39,3-2,9.3-4.47,14.91-1.09,8.6,5.2,11.17,21.24,7.85,49.07-9.16,76.63-49.11,110.16-63.57,119.93a228,228,0,0,1,21.6,19.18c17.6,17.93,24.93,33,21.79,44.79-3.36,12.61-17.59,20-43.5,22.74A265.94,265.94,0,0,1,595.12,1294.1Zm-165.51-61.4c4.85,0,10,2.57,15.43,7.63,9.35,8.8,81.64,54.37,176.85,44.46,21.64-2.25,34.32-8.1,36.67-16.91,4.87-18.3-30.86-48.84-45.05-59.06a4,4,0,0,1,.48-6.72c.54-.29,54.06-29.4,64.54-117,4-33.66-2.1-40.16-4.07-41.35-2.64-1.6-6.19.72-6.23.75-1.23.92-33.62,24.39-103.44,31.81-133.35,14.17-182.94-14.75-238.43-57.16-5.52-4.22-9.89-5.91-12-4.63-4.91,3-4.26,20.35-2.27,31.12h0c.15.83,16.17,83.48,83.89,123.6a4,4,0,0,1,1.82,4.37c-3.71,14.84-10.47,56.64,2.65,71.64,2.18,2.5,7.12,3.19,10.14,3.29,1.76-2.42,5.23-7.05,9-11.24a13.43,13.43,0,0,1,9.45-4.56Z"/><polygon class="cls-11" points="369.76 1205.61 357.22 1205.28 353.04 1215.92 344.69 1207.26 333.6 1213.08 334.13 1200.01 320.55 1198.4 328.4 1187.66 319.98 1178.77 332.16 1175.93 332.16 1163.36 343.7 1168.34 351.4 1159.39 355.9 1170.65 368.69 1168.71 365.29 1181.99 375.94 1186.97 365.14 1193.74 369.76 1205.61"/><path d="M353,1217.9a2,2,0,0,1-1.43-.61l-7.32-7.59-9.77,5.12a2,2,0,0,1-2.9-1.83l.46-11.24-11.77-1.39a2,2,0,0,1-1.36-3.13l6.88-9.42-7.29-7.69a2,2,0,0,1,1-3.29l10.65-2.48v-11a2,2,0,0,1,2.76-1.82l10.2,4.41,6.75-7.85a1.92,1.92,0,0,1,1.82-.66,2,2,0,0,1,1.51,1.22l3.93,9.8,11.22-1.7a2,2,0,0,1,2.21,2.45l-3,11.69,9.16,4.28a2,2,0,0,1,.21,3.47l-9.41,5.9,4,10.35a2,2,0,0,1-.22,1.86,2.07,2.07,0,0,1-1.67.84l-11.15-.29-3.68,9.35a2,2,0,0,1-1.45,1.22A1.87,1.87,0,0,1,353,1217.9Zm-8.35-12.62a2,2,0,0,1,1.43.61l6.21,6.44,3.06-7.77a2.14,2.14,0,0,1,1.89-1.26l9.56.25-3.54-9.1a2,2,0,0,1,.79-2.4l7.72-4.84-7.35-3.44a2,2,0,0,1-1.08-2.28l2.66-10.39-9.83,1.49a1.94,1.94,0,0,1-2.13-1.22l-3.3-8.23-5.57,6.48a2,2,0,0,1-2.28.53l-8.77-3.79v9.56a2,2,0,0,1-1.53,1.93l-8.82,2.06,6.05,6.39a2,2,0,0,1,.16,2.53l-5.86,8,10.22,1.21a2,2,0,0,1,1.75,2l-.39,9.64,8-4.22A2,2,0,0,1,344.69,1205.28Z"/><path d="M550.23,1223.71c-37.14,0-89.44-10.05-156.67-46.79l-44.37,14.5a4,4,0,0,1-2.46-7.52l46-15a4,4,0,0,1,3.14.29c74.36,40.92,129.63,47.69,163,46.22,36-1.63,54.67-13,54.86-13.13a4,4,0,0,1,4.2,6.71C616.23,1210,593.52,1223.71,550.23,1223.71Z"/><path d="M76.84,549.81a4,4,0,0,1-.77-.07L36.8,542a4,4,0,1,1,1.53-7.77L77.6,542a4,4,0,0,1-.76,7.84Z"/><polygon class="cls-11" points="60.59 556.1 48.06 555.77 43.88 566.41 35.53 557.75 24.44 563.56 24.97 550.49 11.38 548.89 19.24 538.14 10.81 529.25 22.99 526.41 23 513.85 34.54 518.83 42.23 509.88 46.74 521.14 59.52 519.2 56.13 532.48 66.78 537.46 55.98 544.23 60.59 556.1"/><path d="M43.88,570.37A4,4,0,0,1,41,569.16l-6.29-6.53-8.46,4.44a4,4,0,0,1-5.79-3.67l.38-9.4-9.95-1.18a4,4,0,0,1-2.73-6.27l5.91-8.08L7.94,532a4,4,0,0,1,2-6.57L19,523.27v-9.42a4,4,0,0,1,5.53-3.63L33.44,514l5.8-6.75a4,4,0,0,1,6.68,1.11l3.34,8.35,9.68-1.46a4,4,0,0,1,4.43,4.89l-2.58,10.1,7.68,3.58a4,4,0,0,1,.43,6.94l-8,5,3.43,8.82a4,4,0,0,1-.45,3.71,4.09,4.09,0,0,1-3.34,1.68l-9.76-.26-3.17,8.06a4,4,0,0,1-2.91,2.43A3.77,3.77,0,0,1,43.88,570.37Zm-8.35-16.58A4,4,0,0,1,38.38,555l4.07,4.22,1.93-4.91a3.82,3.82,0,0,1,3.79-2.51l6.58.17-2.46-6.33a4,4,0,0,1,1.58-4.79L58.51,538l-4.06-1.89a4,4,0,0,1-2.16-4.57L54.21,524l-6.87,1a4,4,0,0,1-4.27-2.44L41,517.4l-3.45,4A4,4,0,0,1,33,522.46l-6-2.6v6.55a4,4,0,0,1-3.06,3.85l-5.46,1.28,3.68,3.88a4,4,0,0,1,.32,5.06l-3.86,5.28,6.86.81a4,4,0,0,1,3.49,4.09l-.26,6.22,5-2.63A4,4,0,0,1,35.53,553.79Z"/><path class="cls-8" d="M78.26,562.3c68.44,40.93,131.06,26.22,137.46,25.1,8.72-1.52,10.46-6.7,10.46-6.7s2.63-8.55,2.63-15.12-8.55-3.94-8.55-3.94C162.41,586,84.79,542.91,84.79,542.91s-2.66-3-4.14,1.95c-1.16,3.87-3.65,9.83-4.7,12.62A3.37,3.37,0,0,0,78.26,562.3Z"/><path d="M179.7,594.86c-28.16,0-64.74-6.11-103.08-28.92a7.23,7.23,0,0,1-4.38-9.86c.3-.8.72-1.86,1.19-3.05,1.11-2.82,2.64-6.69,3.42-9.31,1.18-3.93,3.37-5.18,5-5.54a6.08,6.08,0,0,1,5.3,1.51C93.46,543,165.54,580.36,218.72,558c1.45-.47,7-2,10.91.87a7.91,7.91,0,0,1,3.13,6.72c0,7.09-2.69,15.91-2.8,16.28-.29.85-2.83,7.56-13.56,9.43l-1.14.22A187.77,187.77,0,0,1,179.7,594.86Zm-100-36.24a5.33,5.33,0,0,1,.55.29c55.71,33.32,107.52,29.87,133.46,24.84l1.29-.24c6-1,7.36-4,7.43-4.19h0s2.38-7.9,2.38-13.73a1.62,1.62,0,0,0-.06-.53,9.5,9.5,0,0,0-3.37.36C166.16,588.68,94.74,552.7,84.11,547c-.9,2.78-2.23,6.13-3.32,8.89C80.39,557,80,557.88,79.75,558.62Z"/><g class="cls-2"><polygon class="cls-11" points="44.49 554.53 36.15 545.87 25.06 551.68 25.59 538.61 16.42 537.53 10.68 545.38 24.27 546.99 23.74 560.05 34.83 554.24 43.17 562.9 47.36 552.26 59.89 552.59 56.59 544.1 48.68 543.89 44.49 554.53"/></g><g class="cls-10"><path class="cls-7" d="M189.62,568.74S161,571,136.56,561.63c-10.88,10.69-6.28,22.72-6.66,24-1.31,4.62,65.05,3.79,71.58,4,19.84.68,24.33-12.91,24.33-12.91a90.34,90.34,0,0,0,2-15.14C227.27,564.79,189.62,568.74,189.62,568.74Z"/></g><path d="M76.48,560.06a4,4,0,0,1-1.61-.34L36.48,542.53a4,4,0,1,1,3.23-7.23L78.1,552.48a4,4,0,0,1-1.62,7.57Z"/><g class="cls-2"><path class="cls-5" d="M538.91,555.82c-11.49,99.85-82.82,99.85-82.82,99.85l-28.47,15.72c38.45,133-63.8,125.88-63.8,125.88,88.29-28.2,44.73-161.62,44.73-161.62S489.59,650,538.91,555.82Z"/></g><g class="cls-2"><path class="cls-5" d="M379.74,491.95s47.41-40.82,97.55-37C477.29,455,424.67,423.63,379.74,491.95Z"/></g><g class="cls-10"><path class="cls-7" d="M904.15,158s31.27-18.69,44.94,2c30.14,45.54-19.19,61.09-19.19,61.09L869.8,243.79s52-41,44.5-59.6S904.15,158,904.15,158Z"/></g><g class="cls-10"><path class="cls-7" d="M734.77,86.84s-25.86-46.48-8.34-51.58L673.78,48.05S722.44,69.74,734.77,86.84Z"/></g><g class="cls-10"><path class="cls-7" d="M417.83,114.85S414.16,243.79,744,259.26c0,0,18.26,5-49.33,5s-186.2-7.31-210.75-29.31l-69.73-64.41S402,140.58,417.83,114.85Z"/></g><g class="cls-2"><path class="cls-5" d="M1024.17,264.27s-5.28,56.67,40.9,51.41c0,0-40.66,36.51-63.21,29.15s-40-77.81-40-77.81l20.64-16.1Z"/></g><g class="cls-2"><path class="cls-5" d="M254.84,324.34s60.88,44.74,124.9,56c82.51,14.51,160.74-102.23,160.74-102.23l-13.26-9.35Z"/></g><g class="cls-2"><path class="cls-11" d="M521.88,726.78s65,9.61,67.28,1.79,6.21-3.67,6.21-1.79,1.43,11.12-6.21,11.78S521.62,737.43,521.88,726.78Z"/></g><g class="cls-2"><path class="cls-11" d="M937.25,716.79c-.63,4.29-2.22,10.09,1.78,10s46.48-4.67,46.48-4.67,4-8.18-25.17-1.86c-12.12,2.63-19.82,5.66-16.38-8.18C944.67,709.19,938.08,711.18,937.25,716.79Z"/></g><g class="cls-2"><path class="cls-11" d="M894.28,466.24s46.08,18.25,48.1,30.32S952.8,566.44,958,581.22c3.66,10.44-53.82,10.88-85.49-19.19-3-2.88,4.57,22.16,4.57,22.16s80.91,16.1,89.62,81c0,0,19.05-8.75,19-5s9.54,20.27,12.88,30.28,10.45,26.6,0,43.89c-4.29,7.1-54.92,21.16-67.06,22.9-17.21,2.46-39-4.06-39.41,2.46s19.64,7.92,19.64,7.92l76.38-14.39s26.62-3.65,24.5-31.9-11.08-44.71-11.08-44.71l-22.23-54.13s-18.11-64.79-19.58-94.1-2.35-69.08-2.35-69.08-49.11-5.8-53.13-4.29S894.28,466.24,894.28,466.24Z"/></g><g class="cls-2"><path class="cls-5" d="M583.33,904.8s71.22,69.26,62.44,128.26c0,0-14.1,40.42-168.89,42.17,0,0,90.15,14.84,189.09-34l-20.2-68.15S601.63,903.82,583.33,904.8Z"/></g><g class="cls-2"><path class="cls-5" d="M658.82,1006.34c-17.52,110,232,91.46,283.44,45,74.72-67.48,75-140.07,75-140.07s48.28,297.07-274.22,308.3c-90.57-2.41-111.72-25.39-111.72-25.39s37.3-41.6,46.65-83.18C679.17,1105.53,658.82,1006.34,658.82,1006.34Z"/></g><g class="cls-2"><path class="cls-5" d="M1010.44,1037.27c1.67-.06,25.74-3.63,25.74-3.63l-9.28-34.75Z"/></g><g class="cls-10"><path class="cls-7" d="M362.29,1039.89s1.11,68.75,31.66,104.87,152.23,66.79,210.38,45,59.14-145.46,59.14-145.46,16.27-14.94,20,13.06S662.8,1181.58,610,1211.55s-143.28,3.67-156.3,0-30.29,23.25-30.29,23.25-8.59,18.94-15,17.53-22.18-13.07-21.64-46.72,7.09-29.69,7.09-29.69-83.88-68.64-83.56-120.41c0,0-17-59.86,13.67-42.7S362.29,1039.89,362.29,1039.89Z"/></g><g class="cls-10"><path class="cls-7" d="M654.55,1279.32c35.7-17.89-35.16-71-35.16-71l-9.34,3.24c55.92,49,48.71,51,17.32,62.34-47.11,17.08-153.94-11.7-153.94-11.7S586.38,1313.47,654.55,1279.32Z"/></g><g class="cls-10"><path class="cls-7" d="M791.28,1217.7l65.33-12.43,35-12.52s58.59-45.66,75.11-61.68,43.83-88.85,43.83-88.85-14.71,117.18-37.59,123.32c0,0,27.48,25.83,58.41,5.74,0,0-25,22.68-9.9,26.28s-16.33,32.79-78,31.31-85.76,17.81-85.76,17.81-23.81-17.69-29.77-7.75-12.78,22.85-21,17.17S788,1232.75,791.28,1217.7Z"/></g><g class="cls-10"><path class="cls-7" d="M969.25,1275.87s93.08,5.05,96.27-28.15c.06-12.42-5.83-16.84-5.83-16.84S1061.27,1276.86,969.25,1275.87Z"/></g><g class="cls-2"><polygon class="cls-11" points="354.16 1207.55 345.81 1198.89 334.73 1204.7 335.26 1191.63 326.09 1190.55 320.35 1198.4 333.94 1200.01 333.41 1213.08 344.49 1207.26 352.84 1215.92 357.03 1205.28 369.56 1205.61 366.26 1197.12 358.35 1196.91 354.16 1207.55"/></g><g class="cls-2"><polygon class="cls-11" points="348.76 1166.75 351.9 1178.37 364.42 1178.62 357.65 1189.81 365.16 1195.18 373.98 1191.07 362.85 1183.11 369.61 1171.92 357.1 1171.67 353.96 1160.05 345.16 1167.36 334.34 1161.03 333.14 1170.06 339.97 1174.06 348.76 1166.75"/></g></g></g></g></svg>